<svg xmlns="http://www.w3.org/2000/svg" width="150.03" height="150.03" viewBox="0 0 150.03 150.03">
  <g id="Grupo_8495" data-name="Grupo 8495" transform="translate(0.277 0.277)">
    <path id="Trazado_5069" data-name="Trazado 5069" d="M53.6,26.8a74.739,74.739,0,0,1-74.74,74.738A74.738,74.738,0,0,1-95.872,26.8,74.738,74.738,0,0,1-21.136-47.936,74.739,74.739,0,0,1,53.6,26.8" transform="translate(95.872 47.936)" fill="#fff"/>
    <path id="Trazado_5070" data-name="Trazado 5070" d="M53.6,26.8a74.739,74.739,0,0,1-74.74,74.738A74.738,74.738,0,0,1-95.872,26.8,74.738,74.738,0,0,1-21.136-47.936,74.739,74.739,0,0,1,53.6,26.8Z" transform="translate(95.872 47.936)" fill="none" stroke="#0c0c0c" stroke-width="0.554"/>
    <path id="Trazado_5071" data-name="Trazado 5071" d="M43.473,21.737A60.611,60.611,0,0,1-17.141,82.351,60.612,60.612,0,0,1-77.752,21.737,60.612,60.612,0,0,1-17.141-38.877,60.611,60.611,0,0,1,43.473,21.737" transform="translate(91.879 53.001)" fill="#ffc936"/>
    <path id="Trazado_5072" data-name="Trazado 5072" d="M43.473,21.737A60.611,60.611,0,0,1-17.141,82.351,60.612,60.612,0,0,1-77.752,21.737,60.612,60.612,0,0,1-17.141-38.877,60.611,60.611,0,0,1,43.473,21.737Z" transform="translate(91.879 53.001)" fill="none" stroke="#0c0c0c" stroke-width="0.554"/>
    <path id="Trazado_5074" data-name="Trazado 5074" d="M133.234-117.967h64.579V-178.21H133.234Z" transform="translate(-94.101 221.892)" fill="#fff"/>
    <path id="Trazado_5075" data-name="Trazado 5075" d="M23.316,21.919H-41.263a.439.439,0,0,1-.438-.44V-38.764a.438.438,0,0,1,.438-.438H23.316a.438.438,0,0,1,.438.438V21.479a.439.439,0,0,1-.438.44m-64.139-.878h63.7V-38.324h-63.7Z" transform="translate(80.397 82.446)" fill="#0c0c0c"/>
    <path id="Trazado_5076" data-name="Trazado 5076" d="M23.159,2.55a7.111,7.111,0,0,0-7.113-7.111H-34.306A7.114,7.114,0,0,0-41.42,2.55V7.884H23.159Z" transform="translate(80.554 35.798)" fill="#fff"/>
    <path id="Trazado_5077" data-name="Trazado 5077" d="M23.316,4.778H-41.263a.439.439,0,0,1-.438-.44V-.994a7.56,7.56,0,0,1,7.552-7.551H16.2A7.558,7.558,0,0,1,23.754-.994V4.338a.439.439,0,0,1-.438.44M-40.823,3.9h63.7V-.994A6.681,6.681,0,0,0,16.2-7.667H-34.149A6.681,6.681,0,0,0-40.823-.994Z" transform="translate(80.397 39.343)" fill="#0c0c0c"/>
    <path id="Trazado_5078" data-name="Trazado 5078" d="M1.63.815A2.27,2.27,0,0,1-.643,3.086,2.272,2.272,0,0,1-2.915.815,2.272,2.272,0,0,1-.643-1.457,2.27,2.27,0,0,1,1.63.815" transform="translate(45.895 36.646)" fill="#fff"/>
    <path id="Trazado_5079" data-name="Trazado 5079" d="M.972,1.944A2.714,2.714,0,0,1-1.739-.766,2.715,2.715,0,0,1,.972-3.477,2.714,2.714,0,0,1,3.684-.766,2.713,2.713,0,0,1,.972,1.944m0-4.543A1.836,1.836,0,0,0-.861-.766,1.835,1.835,0,0,0,.972,1.066,1.835,1.835,0,0,0,2.806-.766,1.835,1.835,0,0,0,.972-2.6" transform="translate(44.28 38.226)" fill="#0c0c0c"/>
    <path id="Trazado_5080" data-name="Trazado 5080" d="M1.63.815A2.272,2.272,0,0,1-.643,3.086,2.272,2.272,0,0,1-2.916.815,2.272,2.272,0,0,1-.643-1.457,2.272,2.272,0,0,1,1.63.815" transform="translate(52.835 36.646)" fill="#fff"/>
    <path id="Trazado_5081" data-name="Trazado 5081" d="M.972,1.944A2.713,2.713,0,0,1-1.739-.766,2.714,2.714,0,0,1,.972-3.477,2.714,2.714,0,0,1,3.684-.766,2.713,2.713,0,0,1,.972,1.944m0-4.543A1.836,1.836,0,0,0-.861-.766,1.835,1.835,0,0,0,.972,1.066,1.835,1.835,0,0,0,2.806-.766,1.835,1.835,0,0,0,.972-2.6" transform="translate(51.22 38.226)" fill="#0c0c0c"/>
    <path id="Trazado_5082" data-name="Trazado 5082" d="M1.629.815A2.27,2.27,0,0,1-.642,3.086,2.271,2.271,0,0,1-2.914.815,2.271,2.271,0,0,1-.642-1.457,2.27,2.27,0,0,1,1.629.815" transform="translate(59.774 36.646)" fill="#fff"/>
    <path id="Trazado_5083" data-name="Trazado 5083" d="M.972,1.944A2.714,2.714,0,0,1-1.739-.766,2.715,2.715,0,0,1,.972-3.477,2.714,2.714,0,0,1,3.684-.766,2.713,2.713,0,0,1,.972,1.944m0-4.543A1.836,1.836,0,0,0-.861-.766,1.835,1.835,0,0,0,.972,1.066,1.835,1.835,0,0,0,2.806-.766,1.835,1.835,0,0,0,.972-2.6" transform="translate(58.16 38.226)" fill="#0c0c0c"/>
    <path id="Trazado_5084" data-name="Trazado 5084" d="M1.787.315H-2.758A.438.438,0,0,1-3.2-.123a.439.439,0,0,1,.438-.44H1.787a.439.439,0,0,1,.44.44.439.439,0,0,1-.44.438" transform="translate(92.175 39.856)" fill="#0c0c0c"/>
    <path id="Trazado_5085" data-name="Trazado 5085" d="M1.6,1.76a.434.434,0,0,1-.31-.128L-2.739-2.4a.437.437,0,0,1,0-.619.439.439,0,0,1,.621,0L1.914,1.012a.439.439,0,0,1,0,.621.434.434,0,0,1-.31.128" transform="translate(98.304 38.41)" fill="#0c0c0c"/>
    <path id="Trazado_5086" data-name="Trazado 5086" d="M.158,1.761a.438.438,0,0,1-.312-.748L3.878-3.021a.439.439,0,0,1,.621,0,.439.439,0,0,1,0,.621L.468,1.633a.439.439,0,0,1-.31.128" transform="translate(95.718 38.41)" fill="#0c0c0c"/>
    <path id="Trazado_5088" data-name="Trazado 5088" d="M188.969-169.751H137.41v-5.038h51.559Z" transform="translate(-91.766 223.805)" fill="#ffc936"/>
    <path id="Trazado_5089" data-name="Trazado 5089" d="M18.647,2.121H-32.912a.437.437,0,0,1-.438-.438V-3.356a.437.437,0,0,1,.438-.438H18.647a.437.437,0,0,1,.438.438V1.683a.437.437,0,0,1-.438.438m-51.119-.878H18.209v-4.16H-32.472Z" transform="translate(78.556 52.371)" fill="#0c0c0c"/>
    <path id="Trazado_5091" data-name="Trazado 5091" d="M160.429-163.289H137.41v-5.039h23.019Z" transform="translate(-91.766 227.417)" fill="#2075dd"/>
    <path id="Trazado_5092" data-name="Trazado 5092" d="M8.412,2.121H-14.607a.438.438,0,0,1-.438-.438V-3.356a.438.438,0,0,1,.438-.438H8.412a.44.44,0,0,1,.44.438V1.683a.44.44,0,0,1-.44.438m-22.579-.878H7.974V-2.918H-14.167Z" transform="translate(60.251 62.446)" fill="#0c0c0c"/>
    <path id="Trazado_5094" data-name="Trazado 5094" d="M177.917-163.289H157.176v-5.039h20.741Z" transform="translate(-80.714 227.417)" fill="#2075dd"/>
    <path id="Trazado_5095" data-name="Trazado 5095" d="M7.6,2.121H-13.145a.44.44,0,0,1-.44-.438V-3.356a.44.44,0,0,1,.44-.438H7.6a.437.437,0,0,1,.438.438V1.683a.437.437,0,0,1-.438.438m-20.3-.878H7.158V-2.918H-12.706Z" transform="translate(89.607 62.446)" fill="#0c0c0c"/>
    <path id="Trazado_5097" data-name="Trazado 5097" d="M173.967-156.828H137.41v-5.038h36.557Z" transform="translate(-91.766 231.031)" fill="#ffc936"/>
    <path id="Trazado_5098" data-name="Trazado 5098" d="M13.267,2.121H-23.29a.437.437,0,0,1-.438-.438V-3.356a.437.437,0,0,1,.438-.438H13.267a.438.438,0,0,1,.438.438V1.683a.437.437,0,0,1-.438.438M-22.85,1.244H12.827V-2.918H-22.85Z" transform="translate(68.934 72.521)" fill="#0c0c0c"/>
    <path id="Trazado_5100" data-name="Trazado 5100" d="M148.626-150.366H137.41V-155.4h11.216Z" transform="translate(-91.766 234.644)" fill="#2075dd"/>
    <path id="Trazado_5101" data-name="Trazado 5101" d="M4.179,2.121H-7.037a.438.438,0,0,1-.438-.44V-3.356a.437.437,0,0,1,.438-.438H4.179a.437.437,0,0,1,.438.438V1.682a.439.439,0,0,1-.438.44M-6.6,1.244H3.74V-2.918H-6.6Z" transform="translate(52.681 82.596)" fill="#0c0c0c"/>
    <path id="Trazado_5103" data-name="Trazado 5103" d="M182.185-150.366H149.542V-155.4h32.643Z" transform="translate(-84.982 234.644)" fill="#2075dd"/>
    <path id="Trazado_5104" data-name="Trazado 5104" d="M11.865,2.121H-20.779a.44.44,0,0,1-.441-.44V-3.356a.439.439,0,0,1,.441-.438H11.865a.437.437,0,0,1,.438.438V1.682a.438.438,0,0,1-.438.44m-32.207-.878H11.426V-2.918H-20.342Z" transform="translate(85.338 82.596)" fill="#0c0c0c"/>
    <path id="Trazado_5106" data-name="Trazado 5106" d="M157.365-143.9H137.41v-5.039h19.955Z" transform="translate(-91.766 238.257)" fill="#ffc936"/>
    <path id="Trazado_5107" data-name="Trazado 5107" d="M7.314,2.122H-12.641a.439.439,0,0,1-.44-.44V-3.355a.439.439,0,0,1,.44-.44H7.314a.439.439,0,0,1,.44.44V1.682a.439.439,0,0,1-.44.44M-12.2,1.244H6.874v-4.16H-12.2Z" transform="translate(58.287 92.671)" fill="#0c0c0c"/>
    <path id="Trazado_5108" data-name="Trazado 5108" d="M0,2.174S1.466,30.482,21.008,37.518V-3.889Z" transform="translate(76.356 85.153)" fill="#fff"/>
    <path id="Trazado_5109" data-name="Trazado 5109" d="M0,0V41.407C19.542,34.371,21.006,6.063,21.006,6.063Z" transform="translate(97.363 81.263)" fill="#fff"/>
    <path id="Trazado_5110" data-name="Trazado 5110" d="M7.534,0-13.474,6.063s1.466,28.307,21.008,35.344C27.076,34.371,28.54,6.063,28.54,6.063Z" transform="translate(89.829 81.263)" fill="#2075dd"/>
    <path id="Trazado_5111" data-name="Trazado 5111" d="M7.69,15.164a.43.43,0,0,1-.148-.027c-19.59-7.053-21.28-35.448-21.3-35.734a.44.44,0,0,1,.317-.444l21-6.065a.466.466,0,0,1,.245,0L28.818-21.04a.438.438,0,0,1,.316.444c-.016.285-1.707,28.68-21.3,35.734a.443.443,0,0,1-.148.027M-12.853-20.295c.256,3.232,2.8,28.03,20.543,34.553C25.443,7.732,27.978-17.063,28.233-20.295L7.69-26.226Z" transform="translate(89.672 107.946)" fill="#0c0c0c"/>
    <path id="Trazado_5112" data-name="Trazado 5112" d="M2.563,0A23.847,23.847,0,0,1-4.584,6.19" transform="translate(104.034 112.327)" fill="#fff"/>
    <path id="Trazado_5113" data-name="Trazado 5113" d="M.158,2.534a.439.439,0,0,1-.214-.823A23.431,23.431,0,0,0,6.959-4.367a.442.442,0,0,1,.617-.072.439.439,0,0,1,.072.616A24.338,24.338,0,0,1,.37,2.48a.434.434,0,0,1-.212.055" transform="translate(99.293 116.422)" fill="#0c0c0c"/>
    <path id="Trazado_5114" data-name="Trazado 5114" d="M1.048,0A37.688,37.688,0,0,1-1.875,5.409" transform="translate(110.015 104.777)" fill="#fff"/>
    <path id="Trazado_5115" data-name="Trazado 5115" d="M.157,2.254a.439.439,0,0,1-.366-.68A37.1,37.1,0,0,0,2.681-3.772a.44.44,0,0,1,.578-.223.438.438,0,0,1,.223.578A37.686,37.686,0,0,1,.524,2.056a.432.432,0,0,1-.366.2" transform="translate(107.982 108.37)" fill="#0c0c0c"/>
    <path id="Trazado_5116" data-name="Trazado 5116" d="M.158,9.512a.44.44,0,0,1-.44-.438V-16.575a.44.44,0,0,1,.44-.438.438.438,0,0,1,.438.438V9.074a.438.438,0,0,1-.438.438" transform="translate(97.205 101.581)" fill="#0c0c0c"/>
  </g>
</svg>
