<svg xmlns="http://www.w3.org/2000/svg" width="150.029" height="150.03" viewBox="0 0 150.029 150.03">
  <g id="Grupo_8497" data-name="Grupo 8497" transform="translate(0.277 0.277)">
    <g id="Grupo_8413" data-name="Grupo 8413" transform="translate(0)">
      <path id="Trazado_5117" data-name="Trazado 5117" d="M53.6,26.8a74.739,74.739,0,0,1-74.74,74.738A74.737,74.737,0,0,1-95.871,26.8,74.737,74.737,0,0,1-21.136-47.936,74.739,74.739,0,0,1,53.6,26.8" transform="translate(95.871 47.936)" fill="#fff"/>
    </g>
    <g id="Grupo_8414" data-name="Grupo 8414" transform="translate(0)">
      <path id="Trazado_5118" data-name="Trazado 5118" d="M53.6,26.8a74.739,74.739,0,0,1-74.74,74.738A74.737,74.737,0,0,1-95.871,26.8,74.737,74.737,0,0,1-21.136-47.936,74.739,74.739,0,0,1,53.6,26.8Z" transform="translate(95.871 47.936)" fill="none" stroke="#0c0c0c" stroke-width="0.554"/>
    </g>
    <g id="Grupo_8415" data-name="Grupo 8415" transform="translate(14.126 14.124)">
      <path id="Trazado_5119" data-name="Trazado 5119" d="M43.473,21.737A60.611,60.611,0,0,1-17.141,82.351,60.612,60.612,0,0,1-77.752,21.737,60.612,60.612,0,0,1-17.141-38.877,60.611,60.611,0,0,1,43.473,21.737" transform="translate(77.752 38.877)" fill="#ffc936"/>
    </g>
    <g id="Grupo_8416" data-name="Grupo 8416" transform="translate(14.126 14.124)">
      <path id="Trazado_5120" data-name="Trazado 5120" d="M43.473,21.737A60.611,60.611,0,0,1-17.141,82.351,60.612,60.612,0,0,1-77.752,21.737,60.612,60.612,0,0,1-17.141-38.877,60.611,60.611,0,0,1,43.473,21.737Z" transform="translate(77.752 38.877)" fill="none" stroke="#0c0c0c" stroke-width="0.554"/>
    </g>
    <g id="Grupo_8417" data-name="Grupo 8417" transform="translate(33.046 36.885)">
      <path id="Trazado_5121" data-name="Trazado 5121" d="M29.836,1.368a3.723,3.723,0,0,0-3.751-3.815H-49.343a3.953,3.953,0,0,0-4.019,3.815V56.6h83.2Z" transform="translate(53.362 2.447)" fill="#fff"/>
    </g>
    <g id="Grupo_8418" data-name="Grupo 8418" transform="translate(33.046 36.885)">
      <path id="Trazado_5122" data-name="Trazado 5122" d="M29.836,1.368a3.723,3.723,0,0,0-3.751-3.815H-49.343a3.953,3.953,0,0,0-4.019,3.815V56.6h83.2Z" transform="translate(53.362 2.447)" fill="none" stroke="#0c0c0c" stroke-width="0.554"/>
    </g>
    <g id="Grupo_8419" data-name="Grupo 8419" transform="translate(27.072 96.13)">
      <path id="Trazado_5123" data-name="Trazado 5123" d="M0,0V3.7C0,5.764,1.882,7.382,4.339,7.382H91.076c2.46,0,4.472-1.618,4.472-3.684V0Z" fill="#f4f7f6"/>
    </g>
    <g id="Grupo_8420" data-name="Grupo 8420" transform="translate(27.072 96.13)">
      <path id="Trazado_5124" data-name="Trazado 5124" d="M0,0V3.7C0,5.764,1.882,7.382,4.339,7.382H91.076c2.46,0,4.472-1.618,4.472-3.684V0Z" fill="none" stroke="#1e1d1d" stroke-linejoin="round" stroke-width="1.108"/>
    </g>
    <path id="Trazado_5126" data-name="Trazado 5126" d="M98.747-21.307H27.356V-69.351H98.747Z" transform="translate(11.796 111.132)" fill="#ffd056" stroke="#1e1d1d" stroke-linejoin="round" stroke-width="1.108"/>
    <g id="Grupo_8422" data-name="Grupo 8422" transform="translate(70.014 99.95)">
      <path id="Trazado_5127" data-name="Trazado 5127" d="M0,0H9.261" transform="translate(0 0)" fill="none" stroke="#1e1d1d" stroke-linejoin="round" stroke-width="1.773"/>
    </g>
    <path id="Trazado_5128" data-name="Trazado 5128" d="M92.767-39.756h-62.4V-46.2h62.4Z" transform="translate(13.48 124.077)" fill="#2075dd"/>
    <path id="Trazado_5129" data-name="Trazado 5129" d="M93.169-53.713h-62.8V-66.6h62.8Z" transform="translate(13.48 112.672)" fill="#2075dd"/>
    <path id="Trazado_5130" data-name="Trazado 5130" d="M71.833-44.479H30.368V-55.751H71.833Z" transform="translate(13.48 118.736)" fill="#fff"/>
    <path id="Trazado_5131" data-name="Trazado 5131" d="M76.454-44.479H59.545V-55.751H76.454Z" transform="translate(29.793 118.736)" fill="#fff"/>
  </g>
</svg>
