<svg id="Grupo_8316" data-name="Grupo 8316" xmlns="http://www.w3.org/2000/svg" xmlns:xlink="http://www.w3.org/1999/xlink" width="798.603" height="381.2" viewBox="0 0 798.603 381.2">
  <defs>
    <clipPath id="clip-path">
      <rect id="Rectángulo_5248" data-name="Rectángulo 5248" width="798.603" height="381.2" fill="none"/>
    </clipPath>
    <clipPath id="clip-path-3">
      <rect id="Rectángulo_5173" data-name="Rectángulo 5173" width="184.861" height="112.149" fill="none"/>
    </clipPath>
  </defs>
  <g id="Grupo_8315" data-name="Grupo 8315" clip-path="url(#clip-path)">
    <g id="Grupo_8314" data-name="Grupo 8314">
      <g id="Grupo_8313" data-name="Grupo 8313" clip-path="url(#clip-path)">
        <path id="Trazado_4949" data-name="Trazado 4949" d="M191.48,41.171c-.473-1.449-.889-2.93-1.237-4.407l3.922-.925c.323,1.366.707,2.738,1.146,4.08Z" transform="translate(154.747 29.153)" fill="#161615"/>
        <path id="Trazado_4950" data-name="Trazado 4950" d="M291.2,58.134l-4.013-.359c.136-1.538.207-3.108.207-4.668,0-1.248-.045-2.506-.134-3.739l4.02-.29c.094,1.329.143,2.686.143,4.029,0,1.677-.074,3.369-.223,5.027M189.555,56.958c-.087-1.278-.131-2.573-.131-3.85,0-1.734.08-3.484.239-5.2l4.015.372c-.149,1.6-.223,3.222-.223,4.831,0,1.186.04,2.388.121,3.576Zm96.427-15.893a50.461,50.461,0,0,0-2.628-7.972l3.708-1.578a54.41,54.41,0,0,1,2.84,8.612Zm-90.847-1.059-3.9-1.025a54.363,54.363,0,0,1,3.025-8.547l3.674,1.656a50.726,50.726,0,0,0-2.8,7.916m84.3-14.331a49.09,49.09,0,0,0-5.11-6.648l2.974-2.72a53.125,53.125,0,0,1,5.529,7.19Zm-77.415-.916-3.342-2.25a52.967,52.967,0,0,1,5.692-7.071l2.911,2.789a48.981,48.981,0,0,0-5.261,6.532m66.135-11.4a46.91,46.91,0,0,0-7.067-4.483L262.933,5.3a50.86,50.86,0,0,1,7.674,4.869ZM213.579,12.7,211.2,9.446a50.636,50.636,0,0,1,7.789-4.684l1.757,3.625a46.651,46.651,0,0,0-7.167,4.314m39.757-6.944a45.1,45.1,0,0,0-8.188-1.638l.417-4.008A49.076,49.076,0,0,1,254.489,1.9Zm-24.771-.3L227.5,1.565A49.07,49.07,0,0,1,236.469,0l.323,4.019a44.68,44.68,0,0,0-8.227,1.436" transform="translate(154.08)" fill="#161615"/>
        <path id="Trazado_4951" data-name="Trazado 4951" d="M245.645,41.879l-3.8-1.344c.468-1.324.885-2.687,1.242-4.049l3.9,1.021c-.386,1.471-.838,2.941-1.342,4.372" transform="translate(196.72 29.678)" fill="#161615"/>
        <path id="Trazado_4952" data-name="Trazado 4952" d="M122.892,121.441l-2.417-3.224L182.5,71.7a2.021,2.021,0,0,1,1.873-.29l98.211,34.245-1.327,3.806-97.2-33.893Z" transform="translate(97.996 57.991)" fill="#161615"/>
        <path id="Trazado_4953" data-name="Trazado 4953" d="M330.1,115.249a1.992,1.992,0,0,1-.662-.112L231.23,80.894l1.326-3.806,97.2,33.891L390.919,65.1l2.417,3.226-62.024,46.52a2.021,2.021,0,0,1-1.211.4" transform="translate(188.086 52.954)" fill="#161615"/>
        <path id="Trazado_4954" data-name="Trazado 4954" d="M395.443,111.562a11.389,11.389,0,0,0-11.586-11.2H161.793a11.4,11.4,0,0,0-11.6,11.2V274.133h245.25Z" transform="translate(122.169 81.636)" fill="#d2d2d4"/>
        <path id="Trazado_4955" data-name="Trazado 4955" d="M140,196.187v11.4c0,6.294,6.037,12.018,13.285,12.018H408.947c7.25,0,13.274-5.723,13.274-12.018v-11.4Z" transform="translate(113.877 159.582)" fill="#f5f6f6"/>
        <path id="Trazado_4956" data-name="Trazado 4956" d="M409.85,222.522H154.188c-8.151,0-15.3-6.557-15.3-14.032v-11.4a2.014,2.014,0,0,1,2.015-2.017H423.128a2.014,2.014,0,0,1,2.013,2.017v11.4c0,7.605-7,14.032-15.291,14.032M142.919,199.105v9.384c0,5.328,5.266,10,11.269,10H409.85c6,0,11.26-4.675,11.26-10v-9.384Z" transform="translate(112.974 158.678)" fill="#201c1a"/>
        <rect id="Rectángulo_5166" data-name="Rectángulo 5166" width="210.742" height="140.496" transform="translate(289.617 196.786)" fill="#fff"/>
        <path id="Trazado_4957" data-name="Trazado 4957" d="M371.354,251.929H160.612a2.012,2.012,0,0,1-2.015-2.013V109.42a2.012,2.012,0,0,1,2.015-2.013H371.354a2.013,2.013,0,0,1,2.016,2.013v140.5a2.013,2.013,0,0,1-2.016,2.013M162.628,247.9H369.341V111.436H162.628Z" transform="translate(129.005 87.367)" fill="#201c1a"/>
        <rect id="Rectángulo_5167" data-name="Rectángulo 5167" width="28.345" height="4.029" transform="translate(380.816 364.847)" fill="#201c1a"/>
        <g id="Grupo_8312" data-name="Grupo 8312" transform="translate(303.174 209.111)" opacity="0.6">
          <g id="Grupo_8311" data-name="Grupo 8311">
            <g id="Grupo_8310" data-name="Grupo 8310" clip-path="url(#clip-path-3)">
              <g id="Grupo_8309" data-name="Grupo 8309" transform="translate(0 -0.001)">
                <g id="Grupo_8308" data-name="Grupo 8308" clip-path="url(#clip-path-3)">
                  <rect id="Rectángulo_5168" data-name="Rectángulo 5168" width="184.861" height="38.205" transform="translate(0 0.002)" fill="#e9e9eb"/>
                  <rect id="Rectángulo_5169" data-name="Rectángulo 5169" width="123.243" height="32.041" transform="translate(0 50.531)" fill="#e9e9eb"/>
                  <rect id="Rectángulo_5170" data-name="Rectángulo 5170" width="49.3" height="32.041" transform="translate(134.331 50.531)" fill="#e9e9eb"/>
                  <rect id="Rectángulo_5171" data-name="Rectángulo 5171" width="183.63" height="18.486" transform="translate(0 93.665)" fill="#e9e9eb"/>
                </g>
              </g>
            </g>
          </g>
        </g>
        <path id="Trazado_4958" data-name="Trazado 4958" d="M321.229,125.8a71.334,71.334,0,0,0-71.342-71.287c-39.371,0-71.7,31.918-71.7,71.287,0,34.863,25.636,63.872,57.679,70.065v97.072h27.112V195.918A71.139,71.139,0,0,0,321.229,125.8" transform="translate(144.944 44.343)" fill="#e9e9eb"/>
        <path id="Trazado_4959" data-name="Trazado 4959" d="M263.889,295.859H236.777a2.015,2.015,0,0,1-2.017-2.015V198.413c-33-7.2-57.679-37.73-57.679-71.706,0-40.419,33.066-73.3,73.712-73.3A73.323,73.323,0,0,1,265.9,198.482v95.362a2.014,2.014,0,0,1-2.015,2.015m-25.1-4.029h23.083v-95.01a2.015,2.015,0,0,1,1.652-1.98,69.289,69.289,0,0,0-12.734-137.4c-38.423,0-69.68,31.075-69.68,69.272,0,32.64,24.095,61.91,56.047,68.085a2.02,2.02,0,0,1,1.632,1.98Z" transform="translate(144.04 43.439)" fill="#201c1a"/>
        <rect id="Rectángulo_5174" data-name="Rectángulo 5174" width="14.788" height="4.029" transform="translate(380.816 237.907)" fill="#201c1a"/>
        <rect id="Rectángulo_5175" data-name="Rectángulo 5175" width="45.598" height="60.389" transform="translate(372.191 259.638)" fill="#a2a1a3"/>
        <rect id="Rectángulo_5176" data-name="Rectángulo 5176" width="29.577" height="4.029" transform="translate(379.584 271.182)" fill="#201c1a"/>
        <rect id="Rectángulo_5177" data-name="Rectángulo 5177" width="29.577" height="4.029" transform="translate(379.584 287.202)" fill="#201c1a"/>
        <rect id="Rectángulo_5178" data-name="Rectángulo 5178" width="29.577" height="4.029" transform="translate(379.584 303.223)" fill="#201c1a"/>
        <path id="Trazado_4960" data-name="Trazado 4960" d="M296.139,118.335a54.007,54.007,0,1,1-54.005-54.007,54.008,54.008,0,0,1,54.005,54.007" transform="translate(153.024 52.325)" fill="#ffc924"/>
        <path id="Trazado_4961" data-name="Trazado 4961" d="M243.039,175.259a56.021,56.021,0,1,1,56.02-56.02,56.087,56.087,0,0,1-56.02,56.02m0-108.012a51.992,51.992,0,1,0,51.991,51.992,52.051,52.051,0,0,0-51.991-51.992" transform="translate(152.12 51.422)" fill="#201c1a"/>
        <path id="Trazado_4962" data-name="Trazado 4962" d="M137.343,102.951a11.308,11.308,0,1,1-11.307-11.307,11.309,11.309,0,0,1,11.307,11.307" transform="translate(93.322 74.545)" fill="#ffc100"/>
        <path id="Trazado_4963" data-name="Trazado 4963" d="M171.547,77.3a11.307,11.307,0,1,1-11.307-11.3,11.31,11.31,0,0,1,11.307,11.3" transform="translate(121.145 53.679)" fill="#161615"/>
        <path id="Trazado_4964" data-name="Trazado 4964" d="M161.145,91.525A13.322,13.322,0,1,1,174.467,78.2a13.339,13.339,0,0,1-13.321,13.325m0-22.615a9.292,9.292,0,1,0,9.29,9.29,9.3,9.3,0,0,0-9.29-9.29" transform="translate(120.241 52.774)" fill="#2075dd"/>
        <path id="Trazado_4965" data-name="Trazado 4965" d="M301.954,96.539a11.308,11.308,0,1,1-11.307-11.307,11.308,11.308,0,0,1,11.307,11.307" transform="translate(227.219 69.329)" fill="#a2a1a3"/>
        <path id="Trazado_4966" data-name="Trazado 4966" d="M336.157,70.885a11.307,11.307,0,1,1-11.307-11.308,11.307,11.307,0,0,1,11.307,11.308" transform="translate(255.042 48.461)" fill="#161615"/>
        <path id="Trazado_4967" data-name="Trazado 4967" d="M325.753,85.111a13.322,13.322,0,1,1,13.321-13.321,13.337,13.337,0,0,1-13.321,13.321m0-22.615a9.293,9.293,0,1,0,9.292,9.294,9.3,9.3,0,0,0-9.292-9.294" transform="translate(254.137 47.557)" fill="#2075dd"/>
        <path id="Trazado_4968" data-name="Trazado 4968" d="M332.3,180.805a17.771,17.771,0,0,0,.1-35.539c-.107,0-.025.016-.025.02v35.5c0,.005-.181.018-.073.018" transform="translate(270.274 118.162)" fill="#a2a1a3"/>
        <rect id="Rectángulo_5179" data-name="Rectángulo 5179" width="22.183" height="44.367" transform="translate(448.599 259.639)" fill="#bbbabc"/>
        <rect id="Rectángulo_5180" data-name="Rectángulo 5180" width="16.022" height="107.22" rx="1.426" transform="translate(585.397 228.831)" fill="#f5f6f6"/>
        <path id="Trazado_4969" data-name="Trazado 4969" d="M337.152,236.327H326.3a4.608,4.608,0,0,1-4.6-4.6V129.675a4.6,4.6,0,0,1,4.6-4.6h10.85a4.607,4.607,0,0,1,4.6,4.6V231.727a4.61,4.61,0,0,1-4.6,4.6M326.3,129.107a.568.568,0,0,0-.568.568V231.727a.568.568,0,0,0,.568.569h10.85a.57.57,0,0,0,.571-.569V129.675a.57.57,0,0,0-.571-.568Z" transform="translate(261.679 101.739)" fill="#201c1a"/>
        <rect id="Rectángulo_5181" data-name="Rectángulo 5181" width="20.95" height="33.276" transform="translate(488.036 321.261)" fill="#8b8a8b"/>
        <path id="Trazado_4970" data-name="Trazado 4970" d="M290.981,213.353H270.029a2.015,2.015,0,0,1-2.015-2.015V178.062a2.014,2.014,0,0,1,2.015-2.015h20.952a2.012,2.012,0,0,1,2.013,2.015v33.276a2.013,2.013,0,0,1-2.013,2.015m-18.936-4.031h16.921V180.075H272.045Z" transform="translate(218.007 143.199)" fill="#201c1a"/>
        <path id="Trazado_4971" data-name="Trazado 4971" d="M253.257,172.61H242.165a2.015,2.015,0,0,1-2.015-2.015V150.877a2.016,2.016,0,0,1,2.015-2.015h11.093v4.029h-9.076v15.69h9.076Z" transform="translate(195.342 121.087)" fill="#201c1a"/>
        <path id="Trazado_4972" data-name="Trazado 4972" d="M293.592,144.028l33.276-9.2v74.031l-33.276-9.2Z" transform="translate(238.812 109.675)" fill="#2075dd"/>
        <path id="Trazado_4973" data-name="Trazado 4973" d="M331.66,131.906v84.641l-19.719-5.306V137.214Z" transform="translate(253.737 107.295)" fill="#f5f6f6"/>
        <path id="Trazado_4974" data-name="Trazado 4974" d="M332.566,219.467a2.05,2.05,0,0,1-.524-.069l-19.719-5.3a2.019,2.019,0,0,1-1.492-1.946V138.116a2.014,2.014,0,0,1,1.492-1.946l19.719-5.306a2.018,2.018,0,0,1,2.539,1.948v84.639a2.02,2.02,0,0,1-2.015,2.016m-17.7-8.866,15.688,4.222V135.441l-15.688,4.222Z" transform="translate(252.834 106.391)" fill="#201c1a"/>
        <path id="Rectángulo_5182" data-name="Rectángulo 5182" d="M2.137,0H59.484a2.138,2.138,0,0,1,2.138,2.138v74.6a2.138,2.138,0,0,1-2.138,2.138H2.14A2.14,2.14,0,0,1,0,76.735V2.137A2.137,2.137,0,0,1,2.137,0Z" transform="translate(470.782 242.386)" fill="#d2d2d4"/>
        <path id="Trazado_4975" data-name="Trazado 4975" d="M318.257,215.455H264.393a5.9,5.9,0,0,1-5.894-5.89V138.443a5.9,5.9,0,0,1,5.894-5.892h53.864a5.9,5.9,0,0,1,5.894,5.892v71.122a5.9,5.9,0,0,1-5.894,5.89m-53.864-78.873a1.862,1.862,0,0,0-1.861,1.861v71.122a1.861,1.861,0,0,0,1.861,1.859h53.864a1.861,1.861,0,0,0,1.864-1.859V138.443a1.863,1.863,0,0,0-1.864-1.861Z" transform="translate(210.267 107.819)" fill="#201c1a"/>
        <path id="Trazado_4976" data-name="Trazado 4976" d="M268.649,168.849a13.784,13.784,0,1,0,13.786-13.784,13.784,13.784,0,0,0-13.786,13.784" transform="translate(218.523 126.132)" fill="#fff"/>
        <rect id="Rectángulo_5183" data-name="Rectángulo 5183" width="38.201" height="4.029" transform="translate(481.877 253.929)" fill="#201c1a"/>
        <rect id="Rectángulo_5184" data-name="Rectángulo 5184" width="38.201" height="4.031" transform="translate(481.877 265.018)" fill="#201c1a"/>
        <path id="Trazado_4977" data-name="Trazado 4977" d="M161.517,202.92l11.8-9.383,48.592-39.485H103.324l46.822,39.485Z" transform="translate(84.045 125.308)" fill="#ffc100"/>
        <path id="Trazado_4978" data-name="Trazado 4978" d="M103.3,153.75v76.867l46.821-37.1Z" transform="translate(84.026 125.063)" fill="#ffc100"/>
        <path id="Trazado_4979" data-name="Trazado 4979" d="M104.206,233.534a2.015,2.015,0,0,1-2.017-2.017V154.654a2.016,2.016,0,0,1,3.32-1.536l46.822,39.761a2.015,2.015,0,0,1-.053,3.115l-46.822,37.1a2.008,2.008,0,0,1-1.251.439m2.015-74.524v68.34l41.629-32.99Z" transform="translate(83.122 124.158)" fill="#201c1a"/>
        <path id="Trazado_4980" data-name="Trazado 4980" d="M141.748,193.511l48.592,37.1V153.75Z" transform="translate(115.3 125.062)" fill="#ffc100"/>
        <path id="Trazado_4981" data-name="Trazado 4981" d="M191.244,233.534a2.025,2.025,0,0,1-1.224-.413l-48.59-37.106a2.011,2.011,0,0,1-.053-3.159l48.59-39.763a2.015,2.015,0,0,1,3.291,1.561v76.863a2.018,2.018,0,0,1-2.015,2.017M145.9,194.361l43.326,33.082V158.907Z" transform="translate(114.396 124.158)" fill="#201c1a"/>
        <path id="Trazado_4982" data-name="Trazado 4982" d="M161.517,185.311l-11.37-9.611-46.822,37.151H221.909L173.316,175.7Z" transform="translate(84.045 142.917)" fill="#ffc100"/>
        <path id="Trazado_4983" data-name="Trazado 4983" d="M222.812,215.769H104.228a2.015,2.015,0,0,1-1.253-3.592l46.824-37.15a2.016,2.016,0,0,1,2.551.036l10.1,8.53,10.5-8.55a2.014,2.014,0,0,1,2.5-.04l48.592,37.15a2.015,2.015,0,0,1-1.224,3.616m-112.8-4.029H216.859l-42.6-32.567-10.567,8.6a2.01,2.01,0,0,1-2.573-.025l-10.11-8.539Z" transform="translate(83.142 142.014)" fill="#201c1a"/>
        <path id="Trazado_4984" data-name="Trazado 4984" d="M296.31,97.644h85.038v57.922H338.21v20.363l-21.623-20.363H296.31Z" transform="translate(241.023 79.425)" fill="#ffc100"/>
        <rect id="Rectángulo_5185" data-name="Rectángulo 5185" width="17.255" height="4.029" transform="translate(595.256 186.147)" fill="#201c1a"/>
        <rect id="Rectángulo_5186" data-name="Rectángulo 5186" width="64.086" height="4.029" transform="translate(548.424 198.469)" fill="#201c1a"/>
        <rect id="Rectángulo_5187" data-name="Rectángulo 5187" width="64.086" height="4.029" transform="translate(548.424 212.025)" fill="#201c1a"/>
        <rect id="Rectángulo_5188" data-name="Rectángulo 5188" width="14.788" height="4.029" transform="translate(597.722 221.886)" fill="#201c1a"/>
        <rect id="Rectángulo_5189" data-name="Rectángulo 5189" width="18.484" height="4.029" transform="translate(570.609 221.886)" fill="#201c1a"/>
        <rect id="Rectángulo_5190" data-name="Rectángulo 5190" width="16.022" height="4.029" transform="translate(548.424 221.886)" fill="#201c1a"/>
        <rect id="Rectángulo_5191" data-name="Rectángulo 5191" width="39.436" height="4.029" transform="translate(548.426 186.147)" fill="#201c1a"/>
        <path id="Trazado_4985" data-name="Trazado 4985" d="M201.25,116.673H116.213V174.6H160.58v20.749L181.355,174.6H201.25Z" transform="translate(94.529 94.903)" fill="#2075dd"/>
        <rect id="Rectángulo_5192" data-name="Rectángulo 5192" width="17.253" height="4.031" transform="translate(220.602 220.651)" fill="#201c1a"/>
        <rect id="Rectángulo_5193" data-name="Rectángulo 5193" width="65.319" height="4.029" transform="translate(220.602 234.21)" fill="#201c1a"/>
        <rect id="Rectángulo_5194" data-name="Rectángulo 5194" width="65.319" height="4.029" transform="translate(220.602 246.534)" fill="#201c1a"/>
        <rect id="Rectángulo_5195" data-name="Rectángulo 5195" width="14.787" height="4.029" transform="translate(220.604 257.627)" fill="#201c1a"/>
        <rect id="Rectángulo_5196" data-name="Rectángulo 5196" width="18.486" height="4.029" transform="translate(244.019 257.627)" fill="#201c1a"/>
        <rect id="Rectángulo_5197" data-name="Rectángulo 5197" width="17.255" height="4.029" transform="translate(268.667 257.627)" fill="#201c1a"/>
        <rect id="Rectángulo_5198" data-name="Rectángulo 5198" width="40.669" height="4.031" transform="translate(245.252 220.651)" fill="#201c1a"/>
        <path id="Trazado_4986" data-name="Trazado 4986" d="M387.524,235.062v-7.707a32.173,32.173,0,0,0,4.136-1.73l5.433,5.453a1.312,1.312,0,0,0,1.862,0l7.8-7.814a1.314,1.314,0,0,0,0-1.868l-5.451-5.351a31.663,31.663,0,0,0,1.728-4.08h7.711a1.6,1.6,0,0,0,1.425-1.521V199.4c0-.729-.7-.99-1.425-.99h-7.711a34.391,34.391,0,0,0-1.728-4.338l5.449-5.536a1.373,1.373,0,0,0,0-1.915l-7.814-7.827a1.31,1.31,0,0,0-1.866-.011l-5.415,5.442a33.625,33.625,0,0,0-4.136-1.739v-7.705c0-.731-.667-1.019-1.4-1.019H375.079c-.729,0-1.113.288-1.113,1.019v7.705a35.14,35.14,0,0,0-4.274,1.734l-5.509-5.449a1.348,1.348,0,0,0-1.9,0l-7.825,7.81a1.323,1.323,0,0,0-.009,1.871l5.455,5.62a34.213,34.213,0,0,0-1.737,4.338h-7.707c-.734,0-1.142.261-1.142.99v11.046c0,.731.408,1.521,1.142,1.521h7.707a31.245,31.245,0,0,0,1.735,4.08l-5.457,5.4a1.293,1.293,0,0,0,0,1.846l7.812,7.8a1.318,1.318,0,0,0,1.871-.005l5.558-5.455a33.654,33.654,0,0,0,4.274,1.726v7.707c0,.731.384,1.55,1.113,1.55h11.047a1.6,1.6,0,0,0,1.4-1.55" transform="translate(284.143 141.338)" fill="#d2d2d4"/>
        <path id="Trazado_4987" data-name="Trazado 4987" d="M370.857,205.5a9.911,9.911,0,1,1,9.912-9.91,9.911,9.911,0,0,1-9.912,9.91" transform="translate(293.602 151.034)" fill="#f5f6f6"/>
        <path id="Trazado_4988" data-name="Trazado 4988" d="M371.76,208.42a11.926,11.926,0,1,1,11.927-11.925A11.938,11.938,0,0,1,371.76,208.42m0-19.821a7.9,7.9,0,1,0,7.9,7.9,7.9,7.9,0,0,0-7.9-7.9" transform="translate(292.699 150.131)" fill="#201c1a"/>
        <path id="Trazado_4989" data-name="Trazado 4989" d="M100.05,125.92v-7.707a11.114,11.114,0,0,0,4.4-1.732l5.564,5.453a1.39,1.39,0,0,0,1.926,0l7.839-7.812a1.318,1.318,0,0,0,.015-1.866l-5.448-5.495a32.746,32.746,0,0,0,1.737-4.214h7.711c.729,0,.9-.515.9-1.248V90.256c0-.731-.176-1.266-.9-1.266h-7.711a32.658,32.658,0,0,0-1.73-4.2l5.451-5.469a1.329,1.329,0,0,0,0-1.879l-7.81-7.81a1.312,1.312,0,0,0-1.868,0l-5.676,5.448a11.25,11.25,0,0,0-4.4-1.734V65.635c0-.729-.143-1.293-.876-1.293H88.127c-.729,0-1.634.564-1.634,1.293v7.707a31.729,31.729,0,0,0-4.013,1.732L77.1,69.626a1.267,1.267,0,0,0-1.83,0l-7.794,7.81a1.319,1.319,0,0,0,.011,1.87L72.95,84.79a32.442,32.442,0,0,0-1.734,4.2H63.512c-.733,0-1.667.535-1.667,1.266V101.3c0,.733.934,1.248,1.667,1.248h7.705a32.766,32.766,0,0,0,1.739,4.214L67.5,112.236a1.327,1.327,0,0,0,0,1.877l7.812,7.816a1.322,1.322,0,0,0,1.871,0l5.3-5.451a30.486,30.486,0,0,0,4.013,1.734v7.707c0,.729.9,1.275,1.634,1.275H99.174c.733,0,.876-.546.876-1.275" transform="translate(50.306 52.337)" fill="#d2d2d4"/>
        <path id="Trazado_4990" data-name="Trazado 4990" d="M83.672,96.237a9.912,9.912,0,1,1,9.909-9.91,9.909,9.909,0,0,1-9.909,9.91" transform="translate(60.001 62.156)" fill="#f5f6f6"/>
        <path id="Trazado_4991" data-name="Trazado 4991" d="M84.577,99.157A11.927,11.927,0,1,1,96.5,87.23,11.94,11.94,0,0,1,84.577,99.157m0-19.824a7.9,7.9,0,1,0,7.892,7.9,7.9,7.9,0,0,0-7.892-7.9" transform="translate(59.096 61.253)" fill="#201c1a"/>
        <path id="Trazado_4992" data-name="Trazado 4992" d="M423.54,108.6A42.691,42.691,0,0,0,381.262,66v42.6Z" transform="translate(310.125 53.684)" fill="#0e5ca8"/>
        <path id="Trazado_4993" data-name="Trazado 4993" d="M411.341,119.6a42.674,42.674,0,0,0,12.221-29.947c0-.054,0-.169,0-.169H381.24Z" transform="translate(310.107 72.792)" fill="#e9e9eb"/>
        <path id="Trazado_4994" data-name="Trazado 4994" d="M400.694,108.635V66s-.339-.013-.5-.013a42.806,42.806,0,1,0,30.585,72.745Z" transform="translate(290.693 53.678)" fill="#d2d2d4"/>
        <rect id="Rectángulo_5199" data-name="Rectángulo 5199" width="14.787" height="4.029" transform="translate(691.387 129.454)" fill="#201c1a"/>
        <rect id="Rectángulo_5200" data-name="Rectángulo 5200" width="24.646" height="4.029" transform="translate(691.385 139.314)" fill="#201c1a"/>
        <rect id="Rectángulo_5201" data-name="Rectángulo 5201" width="32.043" height="4.029" transform="translate(691.385 150.405)" fill="#201c1a"/>
        <path id="Trazado_4995" data-name="Trazado 4995" d="M424.79,133.853a44.784,44.784,0,0,1-44.6-42.8H326.893V87.018h55.262a2.017,2.017,0,0,1,2.018,2.015,40.749,40.749,0,0,0,40.617,40.791Z" transform="translate(265.9 70.782)" fill="#161615"/>
        <rect id="Rectángulo_5202" data-name="Rectángulo 5202" width="22.184" height="32.043" transform="translate(135.564 347.14)" fill="#f5f6f6"/>
        <path id="Trazado_4996" data-name="Trazado 4996" d="M97.845,226.391H75.66a2.015,2.015,0,0,1-2.015-2.016V192.334a2.015,2.015,0,0,1,2.015-2.015H97.845a2.014,2.014,0,0,1,2.015,2.015v32.041a2.014,2.014,0,0,1-2.015,2.016m-20.169-4.029H95.829V194.348H77.676Z" transform="translate(59.904 154.808)" fill="#201c1a"/>
        <rect id="Rectángulo_5203" data-name="Rectángulo 5203" width="20.95" height="61.62" transform="translate(101.058 317.564)" fill="#f5f6f6"/>
        <path id="Trazado_4997" data-name="Trazado 4997" d="M77.583,239.659H56.633a2.016,2.016,0,0,1-2.017-2.016v-61.62a2.016,2.016,0,0,1,2.017-2.015h20.95a2.016,2.016,0,0,1,2.017,2.015v61.62a2.016,2.016,0,0,1-2.017,2.016M58.647,235.63H75.568V178.037H58.647Z" transform="translate(44.426 141.541)" fill="#201c1a"/>
        <rect id="Rectángulo_5204" data-name="Rectángulo 5204" width="20.95" height="88.734" transform="translate(65.319 290.449)" fill="#ffc100"/>
        <line id="Línea_1040" data-name="Línea 1040" x2="150.354" transform="translate(57.923 379.184)" fill="#f5f6f6"/>
        <rect id="Rectángulo_5205" data-name="Rectángulo 5205" width="150.354" height="4.029" transform="translate(57.924 377.171)" fill="#161615"/>
        <line id="Línea_1041" data-name="Línea 1041" x2="45.598" transform="translate(184.863 119.145)" fill="#161615"/>
        <rect id="Rectángulo_5206" data-name="Rectángulo 5206" width="45.598" height="4.029" transform="translate(184.863 117.132)" fill="#161615"/>
        <line id="Línea_1042" data-name="Línea 1042" x2="23.415" transform="translate(187.326 145.025)" fill="#161615"/>
        <rect id="Rectángulo_5207" data-name="Rectángulo 5207" width="23.415" height="4.029" transform="translate(187.328 143.011)" fill="#161615"/>
        <line id="Línea_1043" data-name="Línea 1043" x1="45.598" transform="translate(581.7 375.487)" fill="#f5f6f6"/>
        <rect id="Rectángulo_5208" data-name="Rectángulo 5208" width="45.598" height="4.029" transform="translate(581.7 373.473)" fill="#f5f6f6"/>
        <line id="Línea_1044" data-name="Línea 1044" x1="20.95" transform="translate(602.652 352.07)" fill="#f5f6f6"/>
        <rect id="Rectángulo_5209" data-name="Rectángulo 5209" width="20.95" height="4.029" transform="translate(602.652 350.056)" fill="#f5f6f6"/>
        <path id="Trazado_4998" data-name="Trazado 4998" d="M92.07,148.038l-8.576-7.555a2.015,2.015,0,0,1,.014-3.037l8.577-7.4,2.631,3.056-6.824,5.883,6.84,6.024Z" transform="translate(67.36 105.786)" fill="#868787"/>
        <rect id="Rectángulo_5210" data-name="Rectángulo 5210" width="39.436" height="4.029" transform="translate(152.82 242.836)" fill="#868787"/>
        <rect id="Rectángulo_5211" data-name="Rectángulo 5211" width="13.559" height="4.029" transform="translate(198.417 242.836)" fill="#8c8b8b"/>
        <path id="Trazado_4999" data-name="Trazado 4999" d="M67.842,135.157,59.267,127.6a2.017,2.017,0,0,1,.016-3.041l8.576-7.393,2.633,3.052-6.826,5.885,6.84,6.024Z" transform="translate(47.652 95.308)" fill="#8c8b8b"/>
        <rect id="Rectángulo_5212" data-name="Rectángulo 5212" width="41.903" height="4.029" transform="translate(108.451 219.42)" fill="#8c8b8b"/>
        <path id="Trazado_5000" data-name="Trazado 5000" d="M76.868,161.83l-8.576-7.555a2.013,2.013,0,0,1,.016-3.037l8.576-7.4,2.633,3.054-6.826,5.883,6.84,6.028Z" transform="translate(54.994 117.004)" fill="#868787"/>
        <rect id="Rectángulo_5213" data-name="Rectángulo 5213" width="46.831" height="4.029" transform="translate(124.473 267.482)" fill="#868787"/>
        <rect id="Rectángulo_5214" data-name="Rectángulo 5214" width="11.093" height="4.029" transform="translate(156.516 219.42)" fill="#868787"/>
        <path id="Trazado_5001" data-name="Trazado 5001" d="M358.472,161.068l-2.633-3.054,6.827-5.881-6.842-6.028,2.664-3.023,8.576,7.555a2.013,2.013,0,0,1-.016,3.037Z" transform="translate(289.433 116.386)" fill="#868787"/>
        <rect id="Rectángulo_5215" data-name="Rectángulo 5215" width="40.669" height="4.029" transform="translate(614.975 266.253)" fill="#868787"/>
        <rect id="Rectángulo_5216" data-name="Rectángulo 5216" width="13.557" height="4.029" transform="translate(595.256 266.253)" fill="#f5f6f6"/>
        <path id="Trazado_5002" data-name="Trazado 5002" d="M382.7,175.376l-2.631-3.052,6.824-5.883-6.84-6.03,2.664-3.023,8.578,7.556a2.015,2.015,0,0,1-.018,3.037Z" transform="translate(309.141 128.023)" fill="#f5f6f6"/>
        <rect id="Rectángulo_5217" data-name="Rectángulo 5217" width="40.671" height="4.031" transform="translate(658.109 292.132)" fill="#868787"/>
        <path id="Trazado_5003" data-name="Trazado 5003" d="M373.674,145.853l-2.631-3.056,6.824-5.883-6.84-6.024,2.664-3.025,8.574,7.551a2.019,2.019,0,0,1-.014,3.041Z" transform="translate(301.798 104.008)" fill="#868787"/>
        <rect id="Rectángulo_5218" data-name="Rectángulo 5218" width="48.065" height="4.029" transform="translate(635.927 239.139)" fill="#868787"/>
        <rect id="Rectángulo_5219" data-name="Rectángulo 5219" width="11.093" height="4.031" transform="translate(639.623 292.132)" fill="#868787"/>
        <rect id="Rectángulo_5220" data-name="Rectángulo 5220" width="27.114" height="4.029" transform="translate(595.256 144.245)" fill="#161615"/>
        <rect id="Rectángulo_5221" data-name="Rectángulo 5221" width="12.326" height="4.029" transform="translate(570.608 157.8)" fill="#161615"/>
        <rect id="Rectángulo_5222" data-name="Rectángulo 5222" width="9.861" height="4.029" transform="translate(215.671 377.171)" fill="#161615"/>
        <path id="Trazado_5004" data-name="Trazado 5004" d="M246.122,68.42H223.506s3.328,72.834-26.383,81.631c0,0,14.054,17.476,37.715,16.344,20.677,1.4,37.715-15.766,37.715-15.766-29.709-8.8-26.432-82.209-26.432-82.209" transform="translate(160.343 55.654)" fill="#fff"/>
        <path id="Trazado_5005" data-name="Trazado 5005" d="M254.411,48.15c0-.218-25.263-39.3-25.263-39.3s-25.266,39.079-25.266,39.3v-.292h50.529Z" transform="translate(165.841 7.201)" fill="#a2a1a3"/>
        <path id="Trazado_5006" data-name="Trazado 5006" d="M255.315,43.14H204.788a2.015,2.015,0,0,1-2.017-2.015v-9.86a2.015,2.015,0,0,1,2.017-2.015h50.527a2.014,2.014,0,0,1,2.017,2.015v9.86a2.014,2.014,0,0,1-2.017,2.015M206.8,39.111h46.5V33.28H206.8Z" transform="translate(164.937 23.793)" fill="#201c1a"/>
        <path id="Trazado_5007" data-name="Trazado 5007" d="M252.638,67.719,231.746,38.291v36.15h25.564Z" transform="translate(188.505 31.146)" fill="#fff"/>
        <path id="Trazado_5008" data-name="Trazado 5008" d="M258.212,77.36h-25.56a2.014,2.014,0,0,1-2.017-2.015V39.195a2.014,2.014,0,0,1,3.658-1.166l20.892,29.428,4.682,6.739a2.012,2.012,0,0,1-1.656,3.164m-23.547-4.029h19.694l-2.472-3.558L234.664,45.516Z" transform="translate(187.602 30.243)" fill="#201c1a"/>
        <path id="Trazado_5009" data-name="Trazado 5009" d="M194.476,67.719l-4.5,6.722H215.2V38.291Z" transform="translate(154.526 31.146)" fill="#fff"/>
        <path id="Trazado_5010" data-name="Trazado 5010" d="M216.1,77.36H190.876a2.013,2.013,0,0,1-1.674-3.135l4.5-6.722,20.749-29.466a2.015,2.015,0,0,1,3.663,1.159v36.15A2.014,2.014,0,0,1,216.1,77.36m-21.451-4.029h19.433V45.557L197.027,69.784Z" transform="translate(153.622 30.242)" fill="#201c1a"/>
        <path id="Trazado_5011" data-name="Trazado 5011" d="M203.883,35.8v39.63c0,7.587,6.463,13.363,14.05,13.363h-.493v6.162h23.415V88.792H240.7a13.4,13.4,0,0,0,13.709-13.363V35.8Z" transform="translate(165.842 29.119)" fill="#fff"/>
        <path id="Trazado_5012" data-name="Trazado 5012" d="M241.759,97.873H218.345a2.014,2.014,0,0,1-2.015-2.015V91.524a15.627,15.627,0,0,1-13.559-15.191V36.7a2.015,2.015,0,0,1,2.017-2.015h50.527a2.014,2.014,0,0,1,2.017,2.015v39.63a15.311,15.311,0,0,1-13.555,15.242v4.283a2.015,2.015,0,0,1-2.016,2.015m-21.4-4.029h19.382V90.47a2.02,2.02,0,0,1,1.864-2.789A11.4,11.4,0,0,0,253.3,76.333V38.717H206.8V76.333c0,6.258,5.4,11.348,12.034,11.348a2.016,2.016,0,0,1,1.523,3.337Z" transform="translate(164.937 28.216)" fill="#201c1a"/>
        <path id="Trazado_5013" data-name="Trazado 5013" d="M234.322,52.574A11.393,11.393,0,1,1,222.93,41.18a11.393,11.393,0,0,1,11.392,11.394" transform="translate(172.067 33.496)" fill="#d2d2d4"/>
        <rect id="Rectángulo_5223" data-name="Rectángulo 5223" width="13.557" height="4.029" transform="translate(388.211 108.502)" fill="#201c1a"/>
        <path id="Trazado_5014" data-name="Trazado 5014" d="M211.874,119.589l-3.814-1.3c4.5-13.194,4.534-49.789,4.534-50.159l4.033,0c0,1.531-.036,37.637-4.753,51.461" transform="translate(169.239 55.416)" fill="#201c1a"/>
        <path id="Trazado_5015" data-name="Trazado 5015" d="M233.78,130.681c-9.163-14.136-10.746-55.05-10.761-55.456l4.031-.118-2.015.058,2.015-.06c.265,8.392,2.762,42.046,10.112,53.383Z" transform="translate(181.407 61.092)" fill="#201c1a"/>
        <rect id="Rectángulo_5224" data-name="Rectángulo 5224" width="10.06" height="4.031" transform="translate(370.782 191.016) rotate(-66.006)" fill="#201c1a"/>
        <path id="Trazado_5016" data-name="Trazado 5016" d="M236.645,116.294c-2.082-1.525-5.544-5.988-5.932-6.494l3.2-2.459a40.965,40.965,0,0,0,5.114,5.7Z" transform="translate(187.666 87.313)" fill="#201c1a"/>
        <rect id="Rectángulo_5225" data-name="Rectángulo 5225" width="4.031" height="43.136" transform="translate(393.589 133.933)" fill="#201c1a"/>
        <rect id="Rectángulo_5226" data-name="Rectángulo 5226" width="4.031" height="19.719" transform="translate(393.589 184.462)" fill="#201c1a"/>
        <rect id="Rectángulo_5227" data-name="Rectángulo 5227" width="14.79" height="4.031" transform="translate(71.479 297.061)" fill="#201c1a"/>
        <rect id="Rectángulo_5228" data-name="Rectángulo 5228" width="14.79" height="4.029" transform="translate(71.479 318.013)" fill="#201c1a"/>
        <rect id="Rectángulo_5229" data-name="Rectángulo 5229" width="14.79" height="4.031" transform="translate(71.479 340.195)" fill="#201c1a"/>
        <rect id="Rectángulo_5230" data-name="Rectángulo 5230" width="14.79" height="4.029" transform="translate(71.479 362.38)" fill="#201c1a"/>
        <rect id="Rectángulo_5231" data-name="Rectángulo 5231" width="18.484" height="18.486" transform="translate(720.965 223.899)" fill="#e9e9eb"/>
        <rect id="Rectángulo_5232" data-name="Rectángulo 5232" width="18.484" height="18.486" transform="translate(720.965 264.57)" fill="#e9e9eb"/>
        <path id="Trazado_5017" data-name="Trazado 5017" d="M406.57,137.251h-.027a2.013,2.013,0,0,1-1.434-.627l-4.37-4.6,2.925-2.773,2.945,3.1,12.8-12.8,2.849,2.853-14.263,14.261a2.013,2.013,0,0,1-1.424.588" transform="translate(325.967 97.244)" fill="#2075dd"/>
        <path id="Trazado_5018" data-name="Trazado 5018" d="M416.962,143.97H398.478a2.017,2.017,0,0,1-2.017-2.017V123.468h4.029v16.471h16.471Z" transform="translate(322.488 100.431)" fill="#ffc100"/>
        <path id="Trazado_5019" data-name="Trazado 5019" d="M406.57,159.342h-.027a2.006,2.006,0,0,1-1.434-.627l-4.37-4.6,2.925-2.775,2.945,3.1,12.8-12.8,2.849,2.852-14.263,14.259a2.015,2.015,0,0,1-1.424.589" transform="translate(325.967 115.213)" fill="#2075dd"/>
        <path id="Trazado_5020" data-name="Trazado 5020" d="M416.962,166.4H398.478a2.015,2.015,0,0,1-2.017-2.015V145.9h4.029v16.471h16.471Z" transform="translate(322.488 118.673)" fill="#ffc100"/>
        <rect id="Rectángulo_5233" data-name="Rectángulo 5233" width="20.949" height="4.029" transform="translate(753.006 224.349)" fill="#868787"/>
        <rect id="Rectángulo_5234" data-name="Rectángulo 5234" width="45.597" height="4.031" transform="translate(753.006 236.674)" fill="#868787"/>
        <rect id="Rectángulo_5235" data-name="Rectángulo 5235" width="20.949" height="4.029" transform="translate(753.006 266.253)" fill="#868787"/>
        <rect id="Rectángulo_5236" data-name="Rectángulo 5236" width="45.597" height="4.029" transform="translate(753.006 277.346)" fill="#868787"/>
        <rect id="Rectángulo_5237" data-name="Rectángulo 5237" width="18.486" height="18.486" transform="translate(59.155 193.091)" fill="#e9e9eb"/>
        <rect id="Rectángulo_5238" data-name="Rectángulo 5238" width="18.486" height="17.255" transform="translate(59.155 233.758)" fill="#e9e9eb"/>
        <path id="Trazado_5021" data-name="Trazado 5021" d="M43.593,120.15h-.025a2.011,2.011,0,0,1-1.436-.627l-4.369-4.6,2.921-2.775,2.945,3.1,12.8-12.8,2.851,2.851L45.018,119.56a2.023,2.023,0,0,1-1.425.589" transform="translate(30.717 83.334)" fill="#2075dd"/>
        <path id="Trazado_5022" data-name="Trazado 5022" d="M53.37,126.98H34.884a2.015,2.015,0,0,1-2.015-2.015V106.478H36.9v16.471H53.37Z" transform="translate(26.736 86.611)" fill="#ffc100"/>
        <path id="Trazado_5023" data-name="Trazado 5023" d="M43.593,142.242h-.025a2.02,2.02,0,0,1-1.436-.629l-4.369-4.6,2.921-2.775,2.945,3.1,12.8-12.8,2.851,2.854L45.018,141.652a2.023,2.023,0,0,1-1.425.589" transform="translate(30.717 101.302)" fill="#2075dd"/>
        <path id="Trazado_5024" data-name="Trazado 5024" d="M53.37,148.174H34.884a2.015,2.015,0,0,1-2.015-2.015V128.9H36.9v15.24H53.37Z" transform="translate(26.736 104.853)" fill="#ffc100"/>
        <rect id="Rectángulo_5239" data-name="Rectángulo 5239" width="20.95" height="4.031" transform="translate(24.65 193.539)" fill="#868787"/>
        <rect id="Rectángulo_5240" data-name="Rectángulo 5240" width="45.6" height="4.031" transform="translate(0 205.863)" fill="#868787"/>
        <rect id="Rectángulo_5241" data-name="Rectángulo 5241" width="20.95" height="4.029" transform="translate(24.65 235.443)" fill="#868787"/>
        <rect id="Rectángulo_5242" data-name="Rectángulo 5242" width="45.6" height="4.029" transform="translate(0 246.534)" fill="#868787"/>
        <path id="Trazado_5025" data-name="Trazado 5025" d="M284.5,45.123a20.23,20.23,0,0,1,11.562,3.571,14.973,14.973,0,0,1,8.775-4.9,20.605,20.605,0,0,1-.219-2.99,20.384,20.384,0,1,1,40.187,4.809A20.611,20.611,0,0,1,369.89,65.562H264.119A20.537,20.537,0,0,1,284.5,45.123" transform="translate(214.839 16.609)" fill="#2075dd"/>
        <path id="Trazado_5026" data-name="Trazado 5026" d="M308.139,39.228l-1.859-3.576a34.936,34.936,0,0,0,2.972-2.207l2.526,3.143a34.725,34.725,0,0,1-3.64,2.64" transform="translate(249.133 27.205)" fill="#201c1a"/>
        <path id="Trazado_5027" data-name="Trazado 5027" d="M281.675,39.92a7.053,7.053,0,0,0-.9-2.454l3.48-2.033a10.649,10.649,0,0,1,1.449,4.358Z" transform="translate(228.388 28.823)" fill="#201c1a"/>
        <path id="Trazado_5028" data-name="Trazado 5028" d="M194.676,34.929a19.36,19.36,0,0,0-11.058,3.386,14.345,14.345,0,0,0-8.391-4.7,19.71,19.71,0,0,0,.209-2.869A19.493,19.493,0,1,0,137,35.344a19.917,19.917,0,0,0-23.982,19.19H214.171a19.384,19.384,0,0,0-19.494-19.6" transform="translate(91.934 9.15)" fill="#ffc924"/>
        <path id="Trazado_5029" data-name="Trazado 5029" d="M129.042,29.343a33.79,33.79,0,0,1-3.489-2.532l2.521-3.144a34.359,34.359,0,0,0,2.834,2.1Z" transform="translate(102.127 19.251)" fill="#201c1a"/>
        <path id="Trazado_5030" data-name="Trazado 5030" d="M154.253,29.919l-4.029-.125a10.266,10.266,0,0,1,1.4-4.213l3.478,2.036L153.359,26.6l1.743,1.014a6.678,6.678,0,0,0-.849,2.307" transform="translate(122.195 20.808)" fill="#201c1a"/>
        <rect id="Rectángulo_5243" data-name="Rectángulo 5243" width="69.015" height="4.029" transform="translate(531.171 80.158)" fill="#161615"/>
        <rect id="Rectángulo_5244" data-name="Rectángulo 5244" width="89.965" height="4.029" transform="translate(191.025 60.439)" fill="#201c1a"/>
        <rect id="Rectángulo_5245" data-name="Rectángulo 5245" width="11.091" height="4.029" transform="translate(607.581 80.158)" fill="#161615"/>
        <rect id="Rectángulo_5246" data-name="Rectángulo 5246" width="9.86" height="4.029" transform="translate(173.771 60.439)" fill="#201c1a"/>
      </g>
    </g>
  </g>
</svg>
