<svg id="Grupo_8647" data-name="Grupo 8647" xmlns="http://www.w3.org/2000/svg" xmlns:xlink="http://www.w3.org/1999/xlink" width="454.457" height="441.6" viewBox="0 0 454.457 441.6">
  <defs>
    <clipPath id="clip-path">
      <rect id="Rectángulo_5383" data-name="Rectángulo 5383" width="454.457" height="441.6" fill="none"/>
    </clipPath>
  </defs>
  <g id="Grupo_8646" data-name="Grupo 8646" clip-path="url(#clip-path)">
    <path id="Trazado_6203" data-name="Trazado 6203" d="M37.052,353a1,1,0,0,1-.571-.179L.429,327.7a1,1,0,0,1,0-1.642l36.053-25.121a1,1,0,0,1,1.572.821v12.62h93.412a1,1,0,0,1,1,1v23a1,1,0,0,1-1,1H38.054V352a1,1,0,0,1-1,1m-34.3-26.118,33.3,23.2v-11.7a1,1,0,0,1,1-1h93.413v-21H37.052a1,1,0,0,1-1-1v-11.7Z" transform="translate(0 -53.859)" fill="#161615"/>
    <path id="Trazado_6204" data-name="Trazado 6204" d="M487.18,352.887a1,1,0,0,1-.538-.887V339.383H393.23a1,1,0,0,1-1-1v-23a1,1,0,0,1,1-1h93.412v-12.62a1,1,0,0,1,1.574-.821l36.052,25.121a1,1,0,0,1,0,1.642l-36.052,25.117a1,1,0,0,1-1.036.066m1.465-49.209v11.7a1,1,0,0,1-1,1H394.23v21h93.414a1,1,0,0,1,1,1v11.7l33.3-23.2Z" transform="translate(-70.238 -53.859)" fill="#161615"/>
    <path id="Trazado_6205" data-name="Trazado 6205" d="M293.776,132.441h-23a1,1,0,0,1-1-1V38.025H257.163a1,1,0,0,1-.821-1.572L281.454.4A1.036,1.036,0,0,1,283.1.4l24.988,35.859a1,1,0,0,1,.352.763.965.965,0,0,1-1.022,1H294.777v93.414a1,1,0,0,1-1,1m-22-2h21V37.025a1,1,0,0,1,1-1h11.7l-23.2-33.3-23.2,33.3h11.7a1,1,0,0,1,1,1Z" transform="translate(-45.872 0)" fill="#161615"/>
    <path id="Trazado_6206" data-name="Trazado 6206" d="M270.819,376.6h23a1,1,0,0,1,1,1v93.413h12.618a1,1,0,0,1,.821,1.572l-25.116,36.049a1.036,1.036,0,0,1-1.642,0l-24.986-35.859a1,1,0,0,1-.353-.762.962.962,0,0,1,1.02-1h12.638V377.6a1,1,0,0,1,1-1m22,2h-21v93.414a1,1,0,0,1-1,1h-11.7l23.2,33.3,23.2-33.3h-11.7a1,1,0,0,1-1-1Z" transform="translate(-45.872 -67.44)" fill="#161615"/>
    <path id="Trazado_6207" data-name="Trazado 6207" d="M380.086,241.619A137.526,137.526,0,1,1,242.561,104.094,137.525,137.525,0,0,1,380.086,241.619" transform="translate(-18.809 -18.641)" fill="#2075dd"/>
    <path id="Trazado_6208" data-name="Trazado 6208" d="M380.086,241.619A137.526,137.526,0,1,1,242.561,104.094,137.525,137.525,0,0,1,380.086,241.619Z" transform="translate(-18.809 -18.641)" fill="none" stroke="#fff" stroke-miterlimit="10" stroke-width="1"/>
    <path id="Trazado_6209" data-name="Trazado 6209" d="M242.342,379.929c-76.385,0-138.528-62.143-138.528-138.528s62.143-138.526,138.528-138.526S380.869,165.017,380.869,241.4,318.726,379.929,242.342,379.929m0-275.053c-75.281,0-136.526,61.245-136.526,136.525s61.245,136.526,136.526,136.526S378.868,316.682,378.868,241.4,317.622,104.876,242.342,104.876" transform="translate(-18.591 -18.422)" fill="#100f0c"/>
    <path id="Trazado_6210" data-name="Trazado 6210" d="M425.869,252.042v13.15H437.5c-.091-4.437-.4-8.823-.9-13.15Z" transform="translate(-76.263 -45.134)" fill="#1f5388"/>
    <path id="Trazado_6211" data-name="Trazado 6211" d="M425.869,294.746h10.02q1.01-6.478,1.4-13.148H425.869Z" transform="translate(-76.263 -50.427)" fill="#1f5388"/>
    <path id="Trazado_6212" data-name="Trazado 6212" d="M112.374,252.042H105.98q-.752,6.489-.9,13.15h7.3Z" transform="translate(-18.817 -45.134)" fill="#1f5388"/>
    <path id="Trazado_6213" data-name="Trazado 6213" d="M344.97,377.448l-.017-.086,3.9-14.417a8.464,8.464,0,0,0-8.44-8.441H162.132a8.464,8.464,0,0,0-8.438,8.441l3.9,14.5h0l-2.077,7.718a137.745,137.745,0,0,0,18.706,15.227H328.316a138.064,138.064,0,0,0,18.713-15.233l-2.063-7.711Z" transform="translate(-27.523 -63.483)" fill="#d2d2d4"/>
    <path id="Trazado_6214" data-name="Trazado 6214" d="M328.1,401.174H174a1.011,1.011,0,0,1-.563-.172A139.242,139.242,0,0,1,154.6,385.666a1.007,1.007,0,0,1-.27-.979l2.007-7.457-3.829-14.241a1.009,1.009,0,0,1-.034-.261,9.451,9.451,0,0,1,9.439-9.441h178.28a9.451,9.451,0,0,1,9.438,9.441.818.818,0,0,1-.034.262l-3.831,14.157,2.013,7.538a1.009,1.009,0,0,1-.271.976A139.847,139.847,0,0,1,328.661,401a1.011,1.011,0,0,1-.563.172m-153.787-2h153.48a137.875,137.875,0,0,0,17.9-14.543l-1.912-7.141a1.353,1.353,0,0,1-.017-.607L347.63,362.6a7.445,7.445,0,0,0-7.436-7.312H161.914a7.448,7.448,0,0,0-7.437,7.313l3.869,14.369a1.038,1.038,0,0,1,0,.521l-1.928,7.149a137.5,137.5,0,0,0,17.893,14.533" transform="translate(-27.304 -63.265)" fill="#100f0c"/>
    <path id="Trazado_6215" data-name="Trazado 6215" d="M242.342,379.929c-76.385,0-138.528-62.143-138.528-138.528s62.143-138.526,138.528-138.526S380.869,165.017,380.869,241.4,318.726,379.929,242.342,379.929m0-275.053c-75.281,0-136.526,61.245-136.526,136.525s61.245,136.526,136.526,136.526S378.868,316.682,378.868,241.4,317.622,104.876,242.342,104.876" transform="translate(-18.591 -18.422)" fill="#161615"/>
    <rect id="Rectángulo_5364" data-name="Rectángulo 5364" width="13.148" height="13.146" transform="translate(326.133 182.647)" fill="#1f5388"/>
    <rect id="Rectángulo_5365" data-name="Rectángulo 5365" width="13.148" height="13.15" transform="translate(326.133 206.908)" fill="#1f5388"/>
    <rect id="Rectángulo_5366" data-name="Rectángulo 5366" width="13.148" height="13.148" transform="translate(326.133 231.171)" fill="#1f5388"/>
    <rect id="Rectángulo_5367" data-name="Rectángulo 5367" width="13.148" height="13.149" transform="translate(326.133 255.433)" fill="#1f5388"/>
    <rect id="Rectángulo_5368" data-name="Rectángulo 5368" width="13.147" height="13.149" transform="translate(192.163 100.363)" fill="#1f5388"/>
    <rect id="Rectángulo_5369" data-name="Rectángulo 5369" width="13.148" height="13.149" transform="translate(215.635 100.363)" fill="#1f5388"/>
    <rect id="Rectángulo_5370" data-name="Rectángulo 5370" width="13.145" height="13.146" transform="translate(301.593 182.647)" fill="#45b9df"/>
    <rect id="Rectángulo_5371" data-name="Rectángulo 5371" width="13.145" height="13.15" transform="translate(301.593 206.908)" fill="#1f5388"/>
    <rect id="Rectángulo_5372" data-name="Rectángulo 5372" width="13.148" height="13.15" transform="translate(104.957 206.908)" fill="#1f5388"/>
    <rect id="Rectángulo_5373" data-name="Rectángulo 5373" width="13.148" height="13.148" transform="translate(104.957 231.171)" fill="#1f5388"/>
    <rect id="Rectángulo_5374" data-name="Rectángulo 5374" width="13.148" height="13.146" transform="translate(104.957 182.647)" fill="#1f5388"/>
    <rect id="Rectángulo_5375" data-name="Rectángulo 5375" width="13.148" height="13.149" transform="translate(104.957 255.433)" fill="#1f5388"/>
    <rect id="Rectángulo_5376" data-name="Rectángulo 5376" width="13.147" height="13.15" transform="translate(128.429 206.908)" fill="#1f5388"/>
    <rect id="Rectángulo_5377" data-name="Rectángulo 5377" width="13.147" height="13.148" transform="translate(128.429 231.171)" fill="#45b9df"/>
    <rect id="Rectángulo_5378" data-name="Rectángulo 5378" width="13.145" height="13.148" transform="translate(301.593 231.171)" fill="#45b9df"/>
    <rect id="Rectángulo_5379" data-name="Rectángulo 5379" width="13.145" height="13.149" transform="translate(301.593 255.433)" fill="#45b9df"/>
    <path id="Trazado_6216" data-name="Trazado 6216" d="M348.852,170.283a8.465,8.465,0,0,1-8.438,8.44H162.133a8.464,8.464,0,0,1-8.438-8.44l3.9-14.507-3.9-14.5a8.464,8.464,0,0,1,8.438-8.44h178.28a8.464,8.464,0,0,1,8.438,8.44l-3.9,14.418Z" transform="translate(-27.523 -23.787)" fill="#d2d2d4"/>
    <path id="Trazado_6217" data-name="Trazado 6217" d="M340.194,179.5H161.915a9.45,9.45,0,0,1-9.44-9.441.965.965,0,0,1,.035-.26l3.833-14.247-3.833-14.242a.965.965,0,0,1-.035-.26,9.451,9.451,0,0,1,9.44-9.441H340.194a9.452,9.452,0,0,1,9.44,9.441.856.856,0,0,1-.035.261l-3.83,14.159,3.83,14.332a.832.832,0,0,1,.035.258,9.451,9.451,0,0,1-9.44,9.441m-185.717-9.313a7.448,7.448,0,0,0,7.438,7.311H340.194a7.445,7.445,0,0,0,7.436-7.312l-3.867-14.461a.985.985,0,0,1,0-.519l3.866-14.286a7.445,7.445,0,0,0-7.436-7.31H161.915a7.447,7.447,0,0,0-7.438,7.31l3.869,14.37a1.017,1.017,0,0,1,0,.52Z" transform="translate(-27.304 -23.569)" fill="#100f0c"/>
    <path id="Trazado_6218" data-name="Trazado 6218" d="M157.6,160.78l-3.9,14.507a8.464,8.464,0,0,0,8.438,8.44h178.28a8.465,8.465,0,0,0,8.44-8.44L344.97,160.78Z" transform="translate(-27.523 -28.792)" fill="#b6b4b5"/>
    <path id="Trazado_6219" data-name="Trazado 6219" d="M184.392,161.561h-26.16a1,1,0,1,1,0-2h26.16a1,1,0,0,1,0,2" transform="translate(-28.156 -28.573)" fill="#100f0c"/>
    <path id="Trazado_6220" data-name="Trazado 6220" d="M359.5,161.561H235.972a1,1,0,0,1,0-2H359.5a1,1,0,1,1,0,2" transform="translate(-42.078 -28.573)" fill="#100f0c"/>
    <path id="Trazado_6221" data-name="Trazado 6221" d="M206.936,159.651a5.451,5.451,0,1,1-5.452-5.452,5.449,5.449,0,0,1,5.452,5.452" transform="translate(-35.105 -27.613)" fill="#0e5ca8"/>
    <path id="Trazado_6222" data-name="Trazado 6222" d="M206.936,159.651a5.451,5.451,0,1,1-5.452-5.452A5.449,5.449,0,0,1,206.936,159.651Z" transform="translate(-35.105 -27.613)" fill="none" stroke="#fff" stroke-miterlimit="10" stroke-width="1"/>
    <path id="Trazado_6223" data-name="Trazado 6223" d="M201.265,165.882a6.451,6.451,0,1,1,6.452-6.449,6.459,6.459,0,0,1-6.452,6.449m0-10.9a4.449,4.449,0,1,0,4.451,4.451,4.456,4.456,0,0,0-4.451-4.451" transform="translate(-34.886 -27.395)" fill="#100f0c"/>
    <path id="Trazado_6224" data-name="Trazado 6224" d="M227.363,159.651a5.449,5.449,0,1,1-5.452-5.452,5.449,5.449,0,0,1,5.452,5.452" transform="translate(-38.763 -27.613)" fill="#ffc100"/>
    <path id="Trazado_6225" data-name="Trazado 6225" d="M221.693,165.882a6.451,6.451,0,1,1,6.452-6.449,6.458,6.458,0,0,1-6.452,6.449m0-10.9a4.449,4.449,0,1,0,4.451,4.451,4.455,4.455,0,0,0-4.451-4.451" transform="translate(-38.544 -27.395)" fill="#100f0c"/>
    <rect id="Rectángulo_5380" data-name="Rectángulo 5380" width="158.235" height="14.768" transform="translate(144.634 154.935)" fill="#8c8a89"/>
    <path id="Trazado_6226" data-name="Trazado 6226" d="M334.2,204.283H175.965a1,1,0,0,1-1-1V188.514a1,1,0,0,1,1-1H334.2a1,1,0,0,1,1,1v14.768a1,1,0,0,1-1,1m-157.234-2H333.2V189.514H176.966Z" transform="translate(-31.332 -33.579)" fill="#100f0c"/>
    <path id="Trazado_6227" data-name="Trazado 6227" d="M340.194,179.5H161.915a9.45,9.45,0,0,1-9.44-9.441.965.965,0,0,1,.035-.26l3.833-14.247-3.833-14.242a.965.965,0,0,1-.035-.26,9.451,9.451,0,0,1,9.44-9.441H340.194a9.452,9.452,0,0,1,9.44,9.441.856.856,0,0,1-.035.261l-3.83,14.159,3.83,14.332a.832.832,0,0,1,.035.258,9.451,9.451,0,0,1-9.44,9.441m-185.717-9.313a7.448,7.448,0,0,0,7.438,7.311H340.194a7.445,7.445,0,0,0,7.436-7.312l-3.867-14.461a.985.985,0,0,1,0-.519l3.866-14.286a7.445,7.445,0,0,0-7.436-7.31H161.915a7.447,7.447,0,0,0-7.438,7.31l3.869,14.37a1.017,1.017,0,0,1,0,.52Z" transform="translate(-27.304 -23.569)" fill="#100f0c"/>
    <path id="Trazado_6228" data-name="Trazado 6228" d="M348.852,244.172a8.463,8.463,0,0,1-8.438,8.438H162.133a8.463,8.463,0,0,1-8.438-8.438l3.9-14.507-3.9-14.5a8.465,8.465,0,0,1,8.438-8.441h178.28a8.465,8.465,0,0,1,8.438,8.441l-3.9,14.42Z" transform="translate(-27.523 -37.019)" fill="#d2d2d4"/>
    <path id="Trazado_6229" data-name="Trazado 6229" d="M340.194,253.393H161.915a9.45,9.45,0,0,1-9.44-9.439.956.956,0,0,1,.035-.26l3.833-14.246L152.51,215.2a.967.967,0,0,1-.035-.261,9.451,9.451,0,0,1,9.44-9.441H340.194a9.452,9.452,0,0,1,9.44,9.441.849.849,0,0,1-.035.261l-3.83,14.162L349.6,243.7a.84.84,0,0,1,.035.259,9.451,9.451,0,0,1-9.44,9.439m-185.717-9.312a7.448,7.448,0,0,0,7.438,7.311H340.194a7.445,7.445,0,0,0,7.436-7.312l-3.867-14.458a.988.988,0,0,1,0-.52l3.866-14.287a7.446,7.446,0,0,0-7.436-7.311H161.915a7.448,7.448,0,0,0-7.438,7.312l3.869,14.371a1.014,1.014,0,0,1,0,.52Z" transform="translate(-27.304 -36.8)" fill="#100f0c"/>
    <path id="Trazado_6230" data-name="Trazado 6230" d="M157.6,234.671l-3.9,14.507a8.462,8.462,0,0,0,8.438,8.438h178.28a8.463,8.463,0,0,0,8.44-8.438l-3.882-14.507Z" transform="translate(-27.523 -42.024)" fill="#b6b4b5"/>
    <path id="Trazado_6231" data-name="Trazado 6231" d="M184.392,235.454h-26.16a1,1,0,1,1,0-2h26.16a1,1,0,0,1,0,2" transform="translate(-28.156 -41.805)" fill="#100f0c"/>
    <path id="Trazado_6232" data-name="Trazado 6232" d="M359.5,235.454H235.972a1,1,0,0,1,0-2H359.5a1,1,0,0,1,0,2" transform="translate(-42.078 -41.805)" fill="#100f0c"/>
    <path id="Trazado_6233" data-name="Trazado 6233" d="M206.936,233.542a5.451,5.451,0,1,1-5.452-5.452,5.449,5.449,0,0,1,5.452,5.452" transform="translate(-35.105 -40.845)" fill="#0e5ca8"/>
    <path id="Trazado_6234" data-name="Trazado 6234" d="M206.936,233.542a5.451,5.451,0,1,1-5.452-5.452A5.449,5.449,0,0,1,206.936,233.542Z" transform="translate(-35.105 -40.845)" fill="none" stroke="#fff" stroke-miterlimit="10" stroke-width="1"/>
    <path id="Trazado_6235" data-name="Trazado 6235" d="M201.265,239.772a6.451,6.451,0,1,1,6.452-6.449,6.459,6.459,0,0,1-6.452,6.449m0-10.9a4.45,4.45,0,1,0,4.451,4.452,4.456,4.456,0,0,0-4.451-4.452" transform="translate(-34.886 -40.627)" fill="#100f0c"/>
    <path id="Trazado_6236" data-name="Trazado 6236" d="M227.363,233.542a5.449,5.449,0,1,1-5.452-5.452,5.449,5.449,0,0,1,5.452,5.452" transform="translate(-38.763 -40.845)" fill="#ffc100"/>
    <path id="Trazado_6237" data-name="Trazado 6237" d="M221.693,239.772a6.451,6.451,0,1,1,6.452-6.449,6.458,6.458,0,0,1-6.452,6.449m0-10.9a4.45,4.45,0,1,0,4.451,4.452,4.456,4.456,0,0,0-4.451-4.452" transform="translate(-38.544 -40.627)" fill="#100f0c"/>
    <rect id="Rectángulo_5381" data-name="Rectángulo 5381" width="158.235" height="14.771" transform="translate(144.634 215.592)" fill="#8c8a89"/>
    <path id="Trazado_6238" data-name="Trazado 6238" d="M334.2,278.175H175.965a1,1,0,0,1-1-1V262.4a1,1,0,0,1,1-1H334.2a1,1,0,0,1,1,1v14.771a1,1,0,0,1-1,1m-157.234-2H333.2V263.4H176.966Z" transform="translate(-31.332 -46.811)" fill="#100f0c"/>
    <path id="Trazado_6239" data-name="Trazado 6239" d="M340.194,253.393H161.915a9.45,9.45,0,0,1-9.44-9.439.956.956,0,0,1,.035-.26l3.833-14.246L152.51,215.2a.967.967,0,0,1-.035-.261,9.451,9.451,0,0,1,9.44-9.441H340.194a9.452,9.452,0,0,1,9.44,9.441.849.849,0,0,1-.035.261l-3.83,14.162L349.6,243.7a.84.84,0,0,1,.035.259,9.451,9.451,0,0,1-9.44,9.439m-185.717-9.312a7.448,7.448,0,0,0,7.438,7.311H340.194a7.445,7.445,0,0,0,7.436-7.312l-3.867-14.458a.988.988,0,0,1,0-.52l3.866-14.287a7.446,7.446,0,0,0-7.436-7.311H161.915a7.448,7.448,0,0,0-7.438,7.312l3.869,14.371a1.014,1.014,0,0,1,0,.52Z" transform="translate(-27.304 -36.8)" fill="#100f0c"/>
    <path id="Trazado_6240" data-name="Trazado 6240" d="M348.852,318.064a8.463,8.463,0,0,1-8.438,8.438H162.133a8.463,8.463,0,0,1-8.438-8.438l3.9-14.509-3.9-14.5a8.464,8.464,0,0,1,8.438-8.44h178.28a8.464,8.464,0,0,1,8.438,8.44l-3.9,14.42Z" transform="translate(-27.523 -50.251)" fill="#d2d2d4"/>
    <path id="Trazado_6241" data-name="Trazado 6241" d="M340.194,327.286H161.915a9.45,9.45,0,0,1-9.44-9.44.956.956,0,0,1,.035-.26l3.833-14.249L152.51,289.1a.959.959,0,0,1-.035-.259,9.45,9.45,0,0,1,9.44-9.441H340.194a9.451,9.451,0,0,1,9.44,9.441.848.848,0,0,1-.035.26l-3.83,14.16,3.83,14.33a.846.846,0,0,1,.035.259,9.451,9.451,0,0,1-9.44,9.44m-185.717-9.313a7.446,7.446,0,0,0,7.438,7.31H340.194a7.444,7.444,0,0,0,7.436-7.31l-3.867-14.459a.988.988,0,0,1,0-.52l3.866-14.287a7.445,7.445,0,0,0-7.436-7.31H161.915a7.448,7.448,0,0,0-7.438,7.311l3.869,14.369a1.014,1.014,0,0,1,0,.52Z" transform="translate(-27.304 -50.033)" fill="#100f0c"/>
    <path id="Trazado_6242" data-name="Trazado 6242" d="M157.6,308.559l-3.9,14.51a8.462,8.462,0,0,0,8.438,8.437h178.28a8.463,8.463,0,0,0,8.44-8.437l-3.882-14.51Z" transform="translate(-27.523 -55.255)" fill="#b6b4b5"/>
    <path id="Trazado_6243" data-name="Trazado 6243" d="M184.392,309.342h-26.16a1,1,0,1,1,0-2h26.16a1,1,0,1,1,0,2" transform="translate(-28.156 -55.037)" fill="#100f0c"/>
    <path id="Trazado_6244" data-name="Trazado 6244" d="M359.5,309.342H235.972a1,1,0,0,1,0-2H359.5a1,1,0,1,1,0,2" transform="translate(-42.078 -55.037)" fill="#100f0c"/>
    <path id="Trazado_6245" data-name="Trazado 6245" d="M206.936,307.432a5.451,5.451,0,1,1-5.452-5.452,5.449,5.449,0,0,1,5.452,5.452" transform="translate(-35.105 -54.077)" fill="#0e5ca8"/>
    <path id="Trazado_6246" data-name="Trazado 6246" d="M206.936,307.432a5.451,5.451,0,1,1-5.452-5.452A5.449,5.449,0,0,1,206.936,307.432Z" transform="translate(-35.105 -54.077)" fill="none" stroke="#fff" stroke-miterlimit="10" stroke-width="1"/>
    <path id="Trazado_6247" data-name="Trazado 6247" d="M201.265,313.663a6.451,6.451,0,1,1,6.452-6.45,6.459,6.459,0,0,1-6.452,6.45m0-10.9a4.451,4.451,0,1,0,4.451,4.451,4.456,4.456,0,0,0-4.451-4.451" transform="translate(-34.886 -53.859)" fill="#100f0c"/>
    <path id="Trazado_6248" data-name="Trazado 6248" d="M227.363,307.432a5.449,5.449,0,1,1-5.452-5.452,5.449,5.449,0,0,1,5.452,5.452" transform="translate(-38.763 -54.077)" fill="#ffc100"/>
    <path id="Trazado_6249" data-name="Trazado 6249" d="M221.693,313.663a6.451,6.451,0,1,1,6.452-6.45,6.458,6.458,0,0,1-6.452,6.45m0-10.9a4.451,4.451,0,1,0,4.451,4.451,4.456,4.456,0,0,0-4.451-4.451" transform="translate(-38.544 -53.859)" fill="#100f0c"/>
    <rect id="Rectángulo_5382" data-name="Rectángulo 5382" width="158.235" height="14.768" transform="translate(144.634 276.253)" fill="#8c8a89"/>
    <path id="Trazado_6250" data-name="Trazado 6250" d="M334.2,352.064H175.965a1,1,0,0,1-1-1V336.295a1,1,0,0,1,1-1H334.2a1,1,0,0,1,1,1v14.769a1,1,0,0,1-1,1m-157.234-2H333.2V337.3H176.966Z" transform="translate(-31.332 -60.043)" fill="#100f0c"/>
    <path id="Trazado_6251" data-name="Trazado 6251" d="M340.194,327.286H161.915a9.45,9.45,0,0,1-9.44-9.44.956.956,0,0,1,.035-.26l3.833-14.249L152.51,289.1a.959.959,0,0,1-.035-.259,9.45,9.45,0,0,1,9.44-9.441H340.194a9.451,9.451,0,0,1,9.44,9.441.848.848,0,0,1-.035.26l-3.83,14.16,3.83,14.33a.846.846,0,0,1,.035.259,9.451,9.451,0,0,1-9.44,9.44m-185.717-9.313a7.446,7.446,0,0,0,7.438,7.31H340.194a7.444,7.444,0,0,0,7.436-7.31l-3.867-14.459a.988.988,0,0,1,0-.52l3.866-14.287a7.445,7.445,0,0,0-7.436-7.31H161.915a7.448,7.448,0,0,0-7.438,7.311l3.869,14.369a1.014,1.014,0,0,1,0,.52Z" transform="translate(-27.304 -50.033)" fill="#100f0c"/>
    <path id="Trazado_6252" data-name="Trazado 6252" d="M178.7,410.4a137.587,137.587,0,0,0,154.1,0Z" transform="translate(-32.001 -73.493)" fill="#8c8a89"/>
    <path id="Trazado_6253" data-name="Trazado 6253" d="M255.534,434.781a137.8,137.8,0,0,1-77.609-23.769,1,1,0,0,1,.561-1.829h154.1a1,1,0,0,1,.561,1.829,137.8,137.8,0,0,1-77.609,23.769m-73.717-23.6a136.615,136.615,0,0,0,147.433,0Z" transform="translate(-31.783 -73.275)" fill="#100f0c"/>
    <path id="Trazado_6254" data-name="Trazado 6254" d="M328.714,405.456a137.754,137.754,0,0,0,18.713-15.234l-2.063-7.71H157.991l-2.077,7.718a137.732,137.732,0,0,0,18.706,15.226Z" transform="translate(-27.92 -68.498)" fill="#b6b4b5"/>
    <path id="Trazado_6255" data-name="Trazado 6255" d="M328.1,401.174H174a1.011,1.011,0,0,1-.563-.172A139.242,139.242,0,0,1,154.6,385.666a1.007,1.007,0,0,1-.27-.979l2.007-7.457-3.829-14.241a1.009,1.009,0,0,1-.034-.261,9.451,9.451,0,0,1,9.439-9.441h178.28a9.451,9.451,0,0,1,9.438,9.441.818.818,0,0,1-.034.262l-3.831,14.157,2.013,7.538a1.009,1.009,0,0,1-.271.976A139.847,139.847,0,0,1,328.661,401a1.011,1.011,0,0,1-.563.172m-153.787-2h153.48a137.875,137.875,0,0,0,17.9-14.543l-1.912-7.141a1.353,1.353,0,0,1-.017-.607L347.63,362.6a7.445,7.445,0,0,0-7.436-7.312H161.914a7.448,7.448,0,0,0-7.437,7.313l3.869,14.369a1.038,1.038,0,0,1,0,.521l-1.928,7.149a137.5,137.5,0,0,0,17.893,14.533" transform="translate(-27.304 -63.265)" fill="#100f0c"/>
    <path id="Trazado_6256" data-name="Trazado 6256" d="M184.392,383.235h-26.16a1,1,0,1,1,0-2h26.16a1,1,0,1,1,0,2" transform="translate(-28.156 -68.27)" fill="#100f0c"/>
    <path id="Trazado_6257" data-name="Trazado 6257" d="M359.5,383.235H235.972a1,1,0,0,1,0-2H359.5a1,1,0,1,1,0,2" transform="translate(-42.078 -68.27)" fill="#100f0c"/>
    <path id="Trazado_6258" data-name="Trazado 6258" d="M206.936,381.323a5.451,5.451,0,1,1-5.452-5.451,5.449,5.449,0,0,1,5.452,5.451" transform="translate(-35.105 -67.309)" fill="#0e5ca8"/>
    <path id="Trazado_6259" data-name="Trazado 6259" d="M206.936,381.323a5.451,5.451,0,1,1-5.452-5.451A5.449,5.449,0,0,1,206.936,381.323Z" transform="translate(-35.105 -67.309)" fill="none" stroke="#fff" stroke-miterlimit="10" stroke-width="1"/>
    <path id="Trazado_6260" data-name="Trazado 6260" d="M201.265,387.553a6.45,6.45,0,1,1,6.452-6.448,6.458,6.458,0,0,1-6.452,6.448m0-10.9a4.449,4.449,0,1,0,4.451,4.45,4.455,4.455,0,0,0-4.451-4.45" transform="translate(-34.886 -67.091)" fill="#100f0c"/>
    <path id="Trazado_6261" data-name="Trazado 6261" d="M227.363,381.323a5.449,5.449,0,1,1-5.452-5.451,5.449,5.449,0,0,1,5.452,5.451" transform="translate(-38.763 -67.309)" fill="#ffc100"/>
    <path id="Trazado_6262" data-name="Trazado 6262" d="M221.693,387.553a6.45,6.45,0,1,1,6.452-6.448,6.458,6.458,0,0,1-6.452,6.448m0-10.9a4.449,4.449,0,1,0,4.451,4.45,4.455,4.455,0,0,0-4.451-4.45" transform="translate(-38.544 -67.091)" fill="#100f0c"/>
    <path id="Trazado_6263" data-name="Trazado 6263" d="M291.947,320.08s4.373,84.5,62.706,105.5V301.98Z" transform="translate(-52.28 -54.077)" fill="#ffc100"/>
    <path id="Trazado_6264" data-name="Trazado 6264" d="M368.33,301.98v123.6c58.331-21,62.706-105.5,62.706-105.5Z" transform="translate(-65.959 -54.077)" fill="#ffc100"/>
    <path id="Trazado_6265" data-name="Trazado 6265" d="M354.435,426.362a1.02,1.02,0,0,1-.34-.058c-58.282-20.982-63.323-105.538-63.366-106.389a1,1,0,0,1,.722-1.013l62.707-18.1a1,1,0,0,1,.557,0l62.7,18.1a1,1,0,0,1,.722,1.013c-.04.851-5.082,85.407-63.363,106.389a1.038,1.038,0,0,1-.34.058M292.782,320.6c.652,8.577,7.924,84.045,61.653,103.7,53.743-19.656,61-95.119,61.651-103.7l-61.651-17.8Z" transform="translate(-52.062 -53.859)" fill="#100f0c"/>
    <path id="Trazado_6266" data-name="Trazado 6266" d="M397.254,414.934a71.18,71.18,0,0,1-21.329,18.475" transform="translate(-67.319 -74.304)" fill="#ffe96f"/>
    <path id="Trazado_6267" data-name="Trazado 6267" d="M375.707,434.191a1,1,0,0,1-.485-1.876A70.246,70.246,0,0,0,396.249,414.1a1,1,0,1,1,1.571,1.239,72.288,72.288,0,0,1-21.63,18.731,1.025,1.025,0,0,1-.484.124" transform="translate(-67.1 -74.086)" fill="#100f0c"/>
    <path id="Trazado_6268" data-name="Trazado 6268" d="M416.248,387.475a111.97,111.97,0,0,1-8.729,16.15" transform="translate(-72.977 -69.387)" fill="#ffe96f"/>
    <path id="Trazado_6269" data-name="Trazado 6269" d="M407.3,404.406a1,1,0,0,1-.836-1.549,111.48,111.48,0,0,0,8.652-16.006,1,1,0,0,1,1.829.813,113.474,113.474,0,0,1-8.807,16.291,1,1,0,0,1-.838.451" transform="translate(-72.758 -69.169)" fill="#100f0c"/>
    <line id="Línea_1083" data-name="Línea 1083" y2="76.555" transform="translate(302.371 259.08)" fill="#ffe96f"/>
    <path id="Trazado_6270" data-name="Trazado 6270" d="M368.112,392.932a1,1,0,0,1-1-1V315.377a1,1,0,0,1,2,0v76.555a1,1,0,0,1-1,1" transform="translate(-65.74 -56.297)" fill="#100f0c"/>
    <path id="Trazado_6271" data-name="Trazado 6271" d="M320.729,104.71a1,1,0,0,1-1-1V70.422a1,1,0,0,1,2,0v33.288a1,1,0,0,1-1,1" transform="translate(-57.255 -12.432)" fill="#161615"/>
    <path id="Trazado_6272" data-name="Trazado 6272" d="M336.219,112.87a1,1,0,0,1-1-1V90.7a1,1,0,0,1,2,0v21.173a1,1,0,0,1-1,1" transform="translate(-60.029 -16.062)" fill="#161615"/>
    <path id="Trazado_6273" data-name="Trazado 6273" d="M249.879,101.814a1,1,0,0,1-1-1V81a1,1,0,1,1,2,0v19.808a1,1,0,0,1-1,1" transform="translate(-44.569 -14.327)" fill="#161615"/>
    <path id="Trazado_6274" data-name="Trazado 6274" d="M101.24,270.188H84.854a1,1,0,0,1,0-2H101.24a1,1,0,0,1,0,2" transform="translate(-15.016 -48.025)" fill="#161615"/>
    <path id="Trazado_6275" data-name="Trazado 6275" d="M99.892,292.909H71.622a1,1,0,0,1,0-2h28.27a1,1,0,1,1,0,2" transform="translate(-12.646 -52.094)" fill="#161615"/>
    <path id="Trazado_6276" data-name="Trazado 6276" d="M128.716,363.959H106.058a1,1,0,0,1,0-2h22.658a1,1,0,1,1,0,2" transform="translate(-18.813 -64.818)" fill="#161615"/>
    <path id="Trazado_6277" data-name="Trazado 6277" d="M479.055,263.4H439.868a1,1,0,1,1,0-2h39.188a1,1,0,1,1,0,2" transform="translate(-78.59 -46.811)" fill="#161615"/>
    <path id="Trazado_6278" data-name="Trazado 6278" d="M454.841,235.454H435.774a1,1,0,0,1,0-2h19.068a1,1,0,1,1,0,2" transform="translate(-77.857 -41.805)" fill="#161615"/>
    <path id="Trazado_6279" data-name="Trazado 6279" d="M354.245,493.155a1,1,0,0,1-1-1V445.919a1,1,0,1,1,2,0v46.235a1,1,0,0,1-1,1" transform="translate(-63.257 -79.674)" fill="#161615"/>
    <path id="Trazado_6280" data-name="Trazado 6280" d="M325.482,444.125a1,1,0,0,1-1-1V430.316a1,1,0,0,1,2.006,0v12.808a1,1,0,0,1-1,1" transform="translate(-58.106 -76.88)" fill="#161615"/>
    <path id="Trazado_6281" data-name="Trazado 6281" d="M193.986,436.451a1,1,0,0,1-1-1V419.507a1,1,0,0,1,2,0V435.45a1,1,0,0,1-1,1" transform="translate(-34.559 -74.944)" fill="#161615"/>
    <path id="Trazado_6282" data-name="Trazado 6282" d="M164.233,440.882a1,1,0,0,1-1-1V399.365a1,1,0,0,1,2,0v40.517a1,1,0,0,1-1,1" transform="translate(-29.231 -71.337)" fill="#161615"/>
  </g>
</svg>
