<svg id="Grupo_8498" data-name="Grupo 8498" xmlns="http://www.w3.org/2000/svg" xmlns:xlink="http://www.w3.org/1999/xlink" width="150.337" height="150.34" viewBox="0 0 150.337 150.34">
  <defs>
    <clipPath id="clip-path">
      <path id="Trazado_5154" data-name="Trazado 5154" d="M158-31.258a10.84,10.84,0,0,0,2.666,3.4h0c.067.059.137.117.207.173h0a10.794,10.794,0,0,0,6.838,2.435h0a11.238,11.238,0,0,0,1.141-.059h0a10.807,10.807,0,0,0,7.323-3.962h0a10.8,10.8,0,0,0,2.435-6.756h0A59.156,59.156,0,0,1,158-31.258" transform="translate(-157.996 36.026)" fill="none"/>
    </clipPath>
  </defs>
  <g id="Grupo_8423" data-name="Grupo 8423" transform="translate(0.364 0.366)">
    <path id="Trazado_5132" data-name="Trazado 5132" d="M53.652,26.826a74.8,74.8,0,0,1-74.805,74.805,74.8,74.8,0,0,1-74.8-74.805,74.8,74.8,0,0,1,74.8-74.8,74.8,74.8,0,0,1,74.805,74.8" transform="translate(95.957 47.978)" fill="#fff"/>
  </g>
  <g id="Grupo_8424" data-name="Grupo 8424" transform="translate(0)">
    <path id="Trazado_5133" data-name="Trazado 5133" d="M53.782,26.957h-.365a74.207,74.207,0,0,1-21.8,52.636,74.2,74.2,0,0,1-52.636,21.8,74.2,74.2,0,0,1-52.634-21.8,74.206,74.206,0,0,1-21.8-52.636,74.206,74.206,0,0,1,21.8-52.636,74.2,74.2,0,0,1,52.634-21.8,74.2,74.2,0,0,1,52.636,21.8,74.207,74.207,0,0,1,21.8,52.636h.73a75.17,75.17,0,0,0-75.17-75.17A75.171,75.171,0,0,0-96.19,26.957a75.17,75.17,0,0,0,75.167,75.17,75.171,75.171,0,0,0,75.17-75.17Z" transform="translate(96.19 48.213)" fill="#0c0c0c"/>
  </g>
  <g id="Grupo_8425" data-name="Grupo 8425" transform="translate(14.49 14.49)">
    <path id="Trazado_5134" data-name="Trazado 5134" d="M43.52,21.76A60.675,60.675,0,0,1-17.159,82.44,60.678,60.678,0,0,1-77.837,21.76,60.679,60.679,0,0,1-17.159-38.919,60.676,60.676,0,0,1,43.52,21.76" transform="translate(77.837 38.919)" fill="#ffc936"/>
  </g>
  <g id="Grupo_8426" data-name="Grupo 8426" transform="translate(14.125 14.124)">
    <path id="Trazado_5135" data-name="Trazado 5135" d="M43.652,21.892h-.365A60.13,60.13,0,0,1,25.62,64.542a60.122,60.122,0,0,1-42.65,17.665A60.12,60.12,0,0,1-59.676,64.542a60.13,60.13,0,0,1-17.666-42.65,60.13,60.13,0,0,1,17.666-42.65A60.12,60.12,0,0,1-17.029-38.423,60.122,60.122,0,0,1,25.62-20.758a60.13,60.13,0,0,1,17.666,42.65h.73A61.043,61.043,0,0,0-17.029-39.154,61.044,61.044,0,0,0-78.072,21.892,61.043,61.043,0,0,0-17.029,82.938,61.043,61.043,0,0,0,44.017,21.892Z" transform="translate(78.072 39.154)" fill="#0c0c0c"/>
  </g>
  <g id="Grupo_8427" data-name="Grupo 8427" transform="translate(27.25 48.502)">
    <path id="Trazado_5136" data-name="Trazado 5136" d="M17.261,17.958A58.7,58.7,0,0,0,65.394-7.079a58.781,58.781,0,0,0-96.265,0A58.7,58.7,0,0,0,17.261,17.958" transform="translate(30.871 32.118)" fill="#fff"/>
  </g>
  <g id="Grupo_8428" data-name="Grupo 8428" transform="translate(26.825 48.076)">
    <path id="Trazado_5137" data-name="Trazado 5137" d="M17.413,18.264A59.308,59.308,0,0,1-31.066-6.957a.424.424,0,0,1,0-.488,59.207,59.207,0,0,1,96.962,0,.427.427,0,0,1,0,.49A59.325,59.325,0,0,1,17.413,18.264M-30.2-7.2A58.457,58.457,0,0,0,17.413,17.411,58.45,58.45,0,0,0,65.022-7.2a58.353,58.353,0,0,0-95.22,0" transform="translate(31.144 32.665)" fill="#0c0c0c"/>
  </g>
  <g id="Grupo_8429" data-name="Grupo 8429" transform="translate(55.26 53.419)">
    <path id="Trazado_5138" data-name="Trazado 5138" d="M14.431,7.216A20.121,20.121,0,0,1-5.688,27.336,20.123,20.123,0,0,1-25.81,7.216,20.124,20.124,0,0,1-5.688-12.906,20.121,20.121,0,0,1,14.431,7.216" transform="translate(25.81 12.906)" fill="#2075dd"/>
  </g>
  <g id="Grupo_8430" data-name="Grupo 8430" transform="translate(54.835 52.995)">
    <path id="Trazado_5139" data-name="Trazado 5139" d="M7.368,14.736A20.57,20.57,0,0,1-13.178-5.81,20.569,20.569,0,0,1,7.368-26.355,20.57,20.57,0,0,1,27.916-5.81,20.571,20.571,0,0,1,7.368,14.736m0-40.239A19.716,19.716,0,0,0-12.327-5.81,19.716,19.716,0,0,0,7.368,13.883,19.717,19.717,0,0,0,27.064-5.81,19.717,19.717,0,0,0,7.368-25.5" transform="translate(13.178 26.355)" fill="#0c0c0c"/>
  </g>
  <g id="Grupo_8431" data-name="Grupo 8431" transform="translate(67.954 66.111)">
    <path id="Trazado_5140" data-name="Trazado 5140" d="M5.328,2.664A7.428,7.428,0,0,1-2.1,10.092,7.428,7.428,0,0,1-9.529,2.664,7.428,7.428,0,0,1-2.1-4.765,7.428,7.428,0,0,1,5.328,2.664" transform="translate(9.529 4.765)" fill="#3a3e40"/>
  </g>
  <g id="Grupo_8432" data-name="Grupo 8432" transform="translate(67.526 65.686)">
    <path id="Trazado_5141" data-name="Trazado 5141" d="M2.817,5.633A7.865,7.865,0,0,1-5.038-2.222a7.864,7.864,0,0,1,7.855-7.853,7.864,7.864,0,0,1,7.856,7.853A7.864,7.864,0,0,1,2.817,5.633m0-14.857a7.012,7.012,0,0,0-7,7,7.012,7.012,0,0,0,7,7,7.011,7.011,0,0,0,7-7,7.011,7.011,0,0,0-7-7" transform="translate(5.038 10.075)" fill="#0c0c0c"/>
  </g>
  <g id="Grupo_8433" data-name="Grupo 8433" transform="translate(59.877 58.035)">
    <path id="Trazado_5142" data-name="Trazado 5142" d="M.153,5.713a.425.425,0,0,1-.426-.426,15.522,15.522,0,0,1,15.5-15.505.427.427,0,0,1,.427.426.427.427,0,0,1-.427.426A14.67,14.67,0,0,0,.578,5.287a.425.425,0,0,1-.426.426" transform="translate(0.273 10.218)" fill="#0c0c0c"/>
  </g>
  <g id="Grupo_8434" data-name="Grupo 8434" transform="translate(66.455 63.486)">
    <path id="Trazado_5143" data-name="Trazado 5143" d="M3.048,1.524A4.249,4.249,0,0,1-1.2,5.774a4.252,4.252,0,0,1-4.252-4.25A4.251,4.251,0,0,1-1.2-2.726a4.248,4.248,0,0,1,4.249,4.25" transform="translate(5.452 2.726)" fill="#fff"/>
  </g>
  <g id="Grupo_8435" data-name="Grupo 8435" transform="translate(66.029 63.06)">
    <path id="Trazado_5144" data-name="Trazado 5144" d="M1.677,3.354A4.682,4.682,0,0,1-3-1.322,4.682,4.682,0,0,1,1.677-6,4.68,4.68,0,0,1,6.353-1.322,4.68,4.68,0,0,1,1.677,3.354m0-8.5A3.83,3.83,0,0,0-2.149-1.322,3.832,3.832,0,0,0,1.677,2.5,3.829,3.829,0,0,0,5.5-1.322,3.828,3.828,0,0,0,1.677-5.147" transform="translate(3 5.998)" fill="#0c0c0c"/>
  </g>
  <g id="Grupo_8436" data-name="Grupo 8436" transform="translate(72.707 104.08)">
    <path id="Trazado_5145" data-name="Trazado 5145" d="M2.782,1.181A15.192,15.192,0,0,1,.605-.283,15.1,15.1,0,0,1-1.271-2.112l-3.7,4.559L-.923,5.738Z" transform="translate(4.975 2.112)" fill="#75b7d5"/>
  </g>
  <g id="Grupo_8437" data-name="Grupo 8437" transform="translate(72.399 103.772)">
    <path id="Trazado_5146" data-name="Trazado 5146" d="M0,1.757a.313.313,0,0,1,.069-.226l3.7-4.559a.3.3,0,0,1,.232-.114.3.3,0,0,1,.237.1,15.11,15.11,0,0,0,1.84,1.795A15.063,15.063,0,0,0,8.215.19.309.309,0,0,1,8.368.4.317.317,0,0,1,8.3.651L4.6,5.21a.307.307,0,0,1-.433.045L.114,1.966A.313.313,0,0,1,0,1.757M4.023-2.358.743,1.68l3.574,2.9L7.595.545a15.483,15.483,0,0,1-1.9-1.31A15.1,15.1,0,0,1,4.023-2.358" transform="translate(0.001 3.142)" fill="#0c0c0c"/>
  </g>
  <g id="Grupo_8439" data-name="Grupo 8439" transform="translate(56.737 107.553)">
    <path id="Trazado_5148" data-name="Trazado 5148" d="M7.18,1.57,3.128-1.721,1.793-2.808-12.842,15.206l1.339,1.085,4.051,3.291,1.336,1.087L8.52,2.655Z" transform="translate(12.842 2.808)" fill="#2075dd"/>
  </g>
  <g id="Grupo_8440" data-name="Grupo 8440" transform="translate(56.431 107.244)">
    <path id="Trazado_5149" data-name="Trazado 5149" d="M0,6.582a.307.307,0,0,1,.067-.225L14.7-11.658a.317.317,0,0,1,.207-.112.321.321,0,0,1,.228.067L21.859-6.24a.315.315,0,0,1,.045.433L7.271,12.21a.308.308,0,0,1-.207.111.316.316,0,0,1-.228-.067L.113,6.791A.311.311,0,0,1,0,6.582M14.985-11.03.741,6.506l6.244,5.073L21.231-5.955Z" transform="translate(0.001 11.772)" fill="#0c0c0c"/>
  </g>
  <g id="Grupo_8441" data-name="Grupo 8441" transform="translate(72.655 78.815)">
    <path id="Trazado_5150" data-name="Trazado 5150" d="M9.715,8.919A15.255,15.255,0,0,0,7.492-12.539a15.257,15.257,0,0,0-21.46,2.225,15.245,15.245,0,0,0,.349,19.626,15.083,15.083,0,0,0,1.874,1.829A15.078,15.078,0,0,0-9.567,12.6,15.247,15.247,0,0,0,9.715,8.919M-9.179,7.984A11.182,11.182,0,0,1-10.808-7.748,11.185,11.185,0,0,1,4.927-9.379,11.187,11.187,0,0,1,6.556,6.354,11.187,11.187,0,0,1-9.179,7.984" transform="translate(17.375 15.952)" fill="#ffc936"/>
  </g>
  <g id="Grupo_8442" data-name="Grupo 8442" transform="translate(72.346 78.505)">
    <path id="Trazado_5151" data-name="Trazado 5151" d="M.03,6.15v0A15.548,15.548,0,0,1,13.9-10.915a15.455,15.455,0,0,1,11.416,3.4A15.449,15.449,0,0,1,30.985,2.963,15.551,15.551,0,0,1,7.913,18.136a15.739,15.739,0,0,1-2.222-1.491A15.528,15.528,0,0,1,3.78,14.778,15.488,15.488,0,0,1,.03,6.15M30.372,3.025A14.863,14.863,0,0,0,24.929-7.036,14.945,14.945,0,0,0,3.9-4.858,14.813,14.813,0,0,0,.645,6.083v0a14.862,14.862,0,0,0,3.6,8.287,14.865,14.865,0,0,0,1.84,1.793A14.72,14.72,0,0,0,8.216,17.6,14.937,14.937,0,0,0,30.372,3.025M4.073,5.751a11.431,11.431,0,0,1,2.51-8.43A11.491,11.491,0,0,1,26.934,3.382,11.49,11.49,0,0,1,16.688,16,11.5,11.5,0,0,1,4.073,5.751m22.252-2.3A10.877,10.877,0,0,0,4.686,5.688,10.877,10.877,0,0,0,26.325,3.446" transform="translate(0.054 10.999)" fill="#0c0c0c"/>
  </g>
  <g id="Grupo_8444" data-name="Grupo 8444" transform="translate(78.171 94.17)" clip-path="url(#clip-path)">
    <path id="Trazado_5153" data-name="Trazado 5153" d="M183.524-29.845h24.363V-42.583H183.524Z" transform="translate(-143.723 32.36)" fill="#d9b563"/>
  </g>
  <g id="Grupo_8445" data-name="Grupo 8445" transform="translate(77.026 84.372)">
    <path id="Trazado_5155" data-name="Trazado 5155" d="M5.669,0A20.565,20.565,0,0,1-10.139,9.648v.025a11.383,11.383,0,0,0,.059,1.148h0a11,11,0,0,0,.427,2.1c.084.273.179.541.282.8A58.3,58.3,0,0,0,11.586,8.884c-.008-.1-.016-.2-.027-.306A10.805,10.805,0,0,0,7.6,1.257,10.9,10.9,0,0,0,5.669,0" transform="translate(10.139)" fill="#ced2d3"/>
  </g>
  <g id="Grupo_8446" data-name="Grupo 8446" transform="translate(77.798 93.256)">
    <path id="Trazado_5156" data-name="Trazado 5156" d="M7.514,0A58.271,58.271,0,0,1-13.439,4.846c.112.284.237.564.374.837A59.172,59.172,0,0,0,7.547.915V.842c0-.279-.011-.561-.033-.842" transform="translate(13.439)" fill="#363b3b"/>
  </g>
  <g id="Grupo_8447" data-name="Grupo 8447" transform="translate(77.062 83.194)">
    <path id="Trazado_5157" data-name="Trazado 5157" d="M3.9,0A11.238,11.238,0,0,0,2.754.059a10.8,10.8,0,0,0-7.32,3.96,10.8,10.8,0,0,0-2.4,5.948A19.713,19.713,0,0,0,8.027.819,10.784,10.784,0,0,0,3.9,0" transform="translate(6.967 0)" fill="#3b6395"/>
  </g>
  <g id="Grupo_8448" data-name="Grupo 8448" transform="translate(77.026 84.013)">
    <path id="Trazado_5158" data-name="Trazado 5158" d="M5.39,0A19.713,19.713,0,0,1-9.6,9.149c-.022.285-.034.571-.036.859A20.569,20.569,0,0,0,6.168.36C5.912.229,5.652.109,5.39,0" transform="translate(9.64)" fill="#363b3b"/>
  </g>
  <g id="Grupo_8449" data-name="Grupo 8449" transform="translate(77.514 97.297)">
    <path id="Trazado_5159" data-name="Trazado 5159" d="M0,0A10.787,10.787,0,0,0,3.322,5.041a10.812,10.812,0,0,1-2.665-3.4C.521,1.369.4,1.088.284.8Q.127.409,0,0" fill="#363b3b"/>
  </g>
  <g id="Grupo_8450" data-name="Grupo 8450" transform="translate(76.472 95.254)">
    <path id="Trazado_5160" data-name="Trazado 5160" d="M0,0V0A11.4,11.4,0,0,0,3.235,6.873,11.4,11.4,0,0,1,0,0" fill="#846b2f"/>
  </g>
  <g id="Grupo_8451" data-name="Grupo 8451" transform="translate(76.411 82.576)">
    <path id="Trazado_5161" data-name="Trazado 5161" d="M.221,4.113A10.784,10.784,0,0,1,2.658-2.718a10.794,10.794,0,0,1,7.32-3.962,11.212,11.212,0,0,1,1.141-.058A10.79,10.79,0,0,1,17.956-4.3a10.8,10.8,0,0,1,3.963,7.32,11.357,11.357,0,0,1,.058,1.148v.073a10.881,10.881,0,0,1-9.759,10.717,11.238,11.238,0,0,1-1.141.059A10.79,10.79,0,0,1,4.24,12.58c-.07-.058-.14-.115-.209-.175A10.783,10.783,0,0,1,.707,7.365,11.1,11.1,0,0,1,.221,4.113m10.9-11.469a12.04,12.04,0,0,0-1.2.062A11.5,11.5,0,0,0-.395,4.111,11.3,11.3,0,0,0-.333,5.323,11.386,11.386,0,0,0,2.9,12.2a11.65,11.65,0,0,0,.951.862,11.4,11.4,0,0,0,7.223,2.576,11.578,11.578,0,0,0,1.205-.062,11.418,11.418,0,0,0,7.739-4.186,11.415,11.415,0,0,0,2.573-7.219,11.723,11.723,0,0,0-.064-1.211A11.493,11.493,0,0,0,11.118-7.356" transform="translate(0.395 7.356)" fill="#0c0c0c"/>
  </g>
  <g id="Grupo_8452" data-name="Grupo 8452" transform="translate(77.027 94.045)">
    <path id="Trazado_5162" data-name="Trazado 5162" d="M0,0A10.922,10.922,0,0,0,.059,1.148a11,11,0,0,0,.427,2.1,11,11,0,0,1-.426-2.1h0A10.922,10.922,0,0,1,0,0" fill="#7d7e7d"/>
  </g>
  <g id="Grupo_8453" data-name="Grupo 8453" transform="translate(86.916 87.206)">
    <path id="Trazado_5163" data-name="Trazado 5163" d="M0,.122A.309.309,0,0,1,.277-.216.308.308,0,0,1,.613.058L1.974,13.167a.309.309,0,1,1-.614.064Z" transform="translate(0.001 0.218)" fill="#0c0c0c"/>
  </g>
  <g id="Grupo_8454" data-name="Grupo 8454" transform="translate(82.321 89.743)">
    <path id="Trazado_5164" data-name="Trazado 5164" d="M0,.122A.308.308,0,1,1,.613.058L1.55,9.092a.309.309,0,0,1-.614.062Z" transform="translate(0.001 0.218)" fill="#0c0c0c"/>
  </g>
  <g id="Grupo_8455" data-name="Grupo 8455" transform="translate(91.931 88.748)">
    <path id="Trazado_5165" data-name="Trazado 5165" d="M0,.122A.309.309,0,0,1,.615.058L1.55,9.092a.305.305,0,0,1-.274.338.308.308,0,0,1-.338-.276Z" transform="translate(0.001 0.218)" fill="#0c0c0c"/>
  </g>
</svg>
