<svg xmlns="http://www.w3.org/2000/svg" width="150.029" height="150.03" viewBox="0 0 150.029 150.03">
  <g id="Grupo_8496" data-name="Grupo 8496" transform="translate(0.277 0.277)">
    <g id="Grupo_8354" data-name="Grupo 8354" transform="translate(0 0)">
      <path id="Trazado_5050" data-name="Trazado 5050" d="M53.6,26.8a74.739,74.739,0,0,1-74.74,74.738A74.737,74.737,0,0,1-95.871,26.8,74.737,74.737,0,0,1-21.136-47.936,74.739,74.739,0,0,1,53.6,26.8" transform="translate(95.871 47.936)" fill="#fff"/>
    </g>
    <g id="Grupo_8355" data-name="Grupo 8355" transform="translate(0 0)">
      <path id="Trazado_5051" data-name="Trazado 5051" d="M53.6,26.8a74.739,74.739,0,0,1-74.74,74.738A74.737,74.737,0,0,1-95.871,26.8,74.737,74.737,0,0,1-21.136-47.936,74.739,74.739,0,0,1,53.6,26.8Z" transform="translate(95.871 47.936)" fill="none" stroke="#0c0c0c" stroke-width="0.554"/>
    </g>
    <g id="Grupo_8356" data-name="Grupo 8356" transform="translate(14.126 14.124)">
      <path id="Trazado_5052" data-name="Trazado 5052" d="M43.473,21.737A60.612,60.612,0,0,1-17.143,82.351,60.611,60.611,0,0,1-77.752,21.737,60.611,60.611,0,0,1-17.143-38.877,60.612,60.612,0,0,1,43.473,21.737" transform="translate(77.752 38.877)" fill="#ffc936"/>
    </g>
    <g id="Grupo_8357" data-name="Grupo 8357" transform="translate(14.126 14.124)">
      <path id="Trazado_5053" data-name="Trazado 5053" d="M43.473,21.737A60.612,60.612,0,0,1-17.143,82.351,60.611,60.611,0,0,1-77.752,21.737,60.611,60.611,0,0,1-17.143-38.877,60.612,60.612,0,0,1,43.473,21.737Z" transform="translate(77.752 38.877)" fill="none" stroke="#0c0c0c" stroke-width="0.554"/>
    </g>
    <g id="Grupo_8358" data-name="Grupo 8358" transform="translate(93.484 52.016)">
      <path id="Trazado_5054" data-name="Trazado 5054" d="M8.642,8.285l5.329-3.46-3.023-4L9.827-4.062,3.748-2.2A20,20,0,0,0-1.118-6.191L-.5-12.514l-5.013-.131-4.517-2.173-2.339,5.912a20.093,20.093,0,0,0-3.089.407V-.407A12.135,12.135,0,0,1-1.806,3.578a12.137,12.137,0,0,1-2.142,17.03,12.122,12.122,0,0,1-11.508,1.84v8.4a20.4,20.4,0,0,0,2.585.391L-10.68,37.2l4.573-2.056,5.014-.008-.46-6.336a20.308,20.308,0,0,0,2.626-1.728,20.555,20.555,0,0,0,2.34-2.133l6.026,2.008,1.244-4.861,3.12-3.921L8.564,14.576a20.409,20.409,0,0,0,.078-6.291" transform="translate(15.456 14.818)" fill="#2075dd"/>
    </g>
    <g id="Grupo_8359" data-name="Grupo 8359" transform="translate(92.683 51.214)">
      <path id="Trazado_5055" data-name="Trazado 5055" d="M2,19.231a.828.828,0,0,1-.315-.062.805.805,0,0,1-.44-.462L-.769,13.214a21.779,21.779,0,0,1-2.172-.357.8.8,0,0,1-.636-.783v-8.4a.8.8,0,0,1,.34-.653.8.8,0,0,1,.73-.1A11.424,11.424,0,0,0,8.241,1.2a11.35,11.35,0,0,0,2-15.908A11.259,11.259,0,0,0,1.291-19.08a11.324,11.324,0,0,0-3.8.653.794.794,0,0,1-.73-.1.81.81,0,0,1-.34-.655v-8.092a.8.8,0,0,1,.636-.783,20.677,20.677,0,0,1,2.7-.39l2.153-5.441a.8.8,0,0,1,.452-.452A.807.807,0,0,1,3-34.316l4.362,2.1,4.838.126a.8.8,0,0,1,.582.271.81.81,0,0,1,.2.608l-.572,5.819a20.819,20.819,0,0,1,4.272,3.5L22.273-23.6a.8.8,0,0,1,.633.072.8.8,0,0,1,.382.515L24.37-18.3l2.92,3.864a.8.8,0,0,1,.148.622.8.8,0,0,1-.349.533l-4.908,3.185a21.024,21.024,0,0,1-.07,5.519l4.825,3.307a.791.791,0,0,1,.337.541.81.81,0,0,1-.164.619L24.1,3.68l-1.2,4.7a.8.8,0,0,1-.393.5.791.791,0,0,1-.638.058L16.321,7.088a21.073,21.073,0,0,1-2.078,1.846,21.346,21.346,0,0,1-2.279,1.544l.426,5.828a.8.8,0,0,1-.8.859l-4.846.008L2.326,19.16a.822.822,0,0,1-.326.07m-3.974-7.814a17.88,17.88,0,0,0,1.846.249.812.812,0,0,1,.691.522l1.891,5.158,3.789-1.7a.8.8,0,0,1,.327-.072l4.157,0-.4-5.477a.805.805,0,0,1,.413-.759,19.359,19.359,0,0,0,2.52-1.66,19.754,19.754,0,0,0,2.25-2.049.8.8,0,0,1,.837-.212l5.207,1.737,1.031-4.027a.839.839,0,0,1,.15-.3L25.32-.43,20.789-3.537a.806.806,0,0,1-.337-.8,19.483,19.483,0,0,0,.078-6.043.8.8,0,0,1,.355-.786l4.609-2.99-2.507-3.313a.774.774,0,0,1-.14-.3l-.928-4.051-5.256,1.609a.8.8,0,0,1-.833-.234,19.149,19.149,0,0,0-4.673-3.829.8.8,0,0,1-.393-.77L11.3-30.51l-4.152-.109a.789.789,0,0,1-.327-.078L3.08-32.5,1.058-27.386a.8.8,0,0,1-.7.505,19.95,19.95,0,0,0-2.329.267v6.349a12.9,12.9,0,0,1,3.265-.418,12.852,12.852,0,0,1,10.217,5A12.955,12.955,0,0,1,9.225,2.468a13.007,13.007,0,0,1-11.2,2.29Z" transform="translate(3.577 34.394)" fill="#0c0c0c"/>
    </g>
    <g id="Grupo_8361" data-name="Grupo 8361" transform="translate(37.202 36.641)">
      <path id="Trazado_5057" data-name="Trazado 5057" d="M16.568,0h-46.2V73.449H26.651V10.084Z" transform="translate(29.632)" fill="#f4f7f6"/>
    </g>
    <g id="Grupo_8362" data-name="Grupo 8362" transform="translate(36.401 35.84)">
      <path id="Trazado_5058" data-name="Trazado 5058" d="M20.471,26.914H-35.812a.8.8,0,0,1-.8-.8V-47.335a.8.8,0,0,1,.8-.8h46.2a.79.79,0,0,1,.564.235L21.037-37.818a.806.806,0,0,1,.235.566V26.112a.8.8,0,0,1-.8.8m-55.481-1.6H19.67V-36.92l-9.614-9.614H-35.01Z" transform="translate(36.613 48.136)" fill="#0c0c0c"/>
    </g>
    <g id="Grupo_8364" data-name="Grupo 8364" transform="translate(83.403 36.64)">
      <path id="Trazado_5060" data-name="Trazado 5060" d="M0,3.616H10.081L0-6.468Z" transform="translate(0 6.468)" fill="#d1d9d7"/>
    </g>
    <g id="Grupo_8365" data-name="Grupo 8365" transform="translate(82.602 35.84)">
      <path id="Trazado_5061" data-name="Trazado 5061" d="M3.9,4.19H-6.179a.8.8,0,0,1-.8-.8V-6.694a.8.8,0,0,1,.5-.741.8.8,0,0,1,.873.175L4.469,2.823A.8.8,0,0,1,3.9,4.19m-9.28-1.6H1.969L-5.377-4.759Z" transform="translate(6.98 7.495)" fill="#0c0c0c"/>
    </g>
    <g id="Grupo_8366" data-name="Grupo 8366" transform="translate(29.425 45.924)">
      <path id="Trazado_5062" data-name="Trazado 5062" d="M16.819.574h-46.1a.8.8,0,0,1-.8-.8.8.8,0,0,1,.8-.8h46.1a.8.8,0,0,1,.8.8.8.8,0,0,1-.8.8" transform="translate(30.082 1.027)" fill="#0c0c0c"/>
    </g>
    <g id="Grupo_8367" data-name="Grupo 8367" transform="translate(29.425 57.068)">
      <path id="Trazado_5063" data-name="Trazado 5063" d="M16.819.575h-46.1a.8.8,0,0,1-.8-.8.8.8,0,0,1,.8-.8h46.1a.8.8,0,0,1,.8.8.8.8,0,0,1-.8.8" transform="translate(30.082 1.028)" fill="#0c0c0c"/>
    </g>
    <g id="Grupo_8368" data-name="Grupo 8368" transform="translate(29.425 68.213)">
      <path id="Trazado_5064" data-name="Trazado 5064" d="M16.819.574h-46.1a.8.8,0,0,1-.8-.8.8.8,0,0,1,.8-.8h46.1a.8.8,0,0,1,.8.8.8.8,0,0,1-.8.8" transform="translate(30.082 1.027)" fill="#0c0c0c"/>
    </g>
    <g id="Grupo_8369" data-name="Grupo 8369" transform="translate(29.425 79.357)">
      <path id="Trazado_5065" data-name="Trazado 5065" d="M16.819.575h-46.1a.8.8,0,0,1-.8-.8.8.8,0,0,1,.8-.8h46.1a.8.8,0,0,1,.8.8.8.8,0,0,1-.8.8" transform="translate(30.082 1.028)" fill="#0c0c0c"/>
    </g>
    <g id="Grupo_8370" data-name="Grupo 8370" transform="translate(29.426 90.503)">
      <path id="Trazado_5066" data-name="Trazado 5066" d="M11.034.574H-18.933a.8.8,0,0,1-.8-.8.8.8,0,0,1,.8-.8H11.034a.8.8,0,0,1,.8.8.8.8,0,0,1-.8.8" transform="translate(19.734 1.027)" fill="#0c0c0c"/>
    </g>
    <g id="Grupo_8371" data-name="Grupo 8371" transform="translate(69.249 90.064)">
      <path id="Trazado_5067" data-name="Trazado 5067" d="M5.076,2.537A7.078,7.078,0,0,1-2,9.616,7.079,7.079,0,0,1-9.078,2.537,7.077,7.077,0,0,1-2-4.538,7.076,7.076,0,0,1,5.076,2.537" transform="translate(9.078 4.538)" fill="#ffc936"/>
    </g>
    <g id="Grupo_8372" data-name="Grupo 8372" transform="translate(68.45 89.263)">
      <path id="Trazado_5068" data-name="Trazado 5068" d="M2.825,5.65a7.888,7.888,0,0,1-7.877-7.88,7.885,7.885,0,0,1,7.877-7.877A7.886,7.886,0,0,1,10.7-2.229,7.889,7.889,0,0,1,2.825,5.65m0-14.155A6.283,6.283,0,0,0-3.451-2.229,6.284,6.284,0,0,0,2.825,4.048,6.283,6.283,0,0,0,9.1-2.229,6.282,6.282,0,0,0,2.825-8.5" transform="translate(5.052 10.106)" fill="#0c0c0c"/>
    </g>
  </g>
</svg>
