<svg id="Grupo_8664" data-name="Grupo 8664" xmlns="http://www.w3.org/2000/svg" xmlns:xlink="http://www.w3.org/1999/xlink" width="482.174" height="312.6" viewBox="0 0 482.174 312.6">
  <defs>
    <clipPath id="clip-path">
      <rect id="Rectángulo_5385" data-name="Rectángulo 5385" width="482.174" height="312.6" fill="none"/>
    </clipPath>
  </defs>
  <rect id="Rectángulo_5384" data-name="Rectángulo 5384" width="125.876" height="46.38" transform="translate(176.965 1.553)" fill="#0e5ca8"/>
  <g id="Grupo_8649" data-name="Grupo 8649">
    <g id="Grupo_8648" data-name="Grupo 8648" clip-path="url(#clip-path)">
      <path id="Trazado_6283" data-name="Trazado 6283" d="M287.713,49.484H161.835a1.551,1.551,0,0,1-1.553-1.551V1.553A1.553,1.553,0,0,1,161.835,0H287.713a1.551,1.551,0,0,1,1.551,1.553v46.38a1.549,1.549,0,0,1-1.551,1.551m-124.328-3.1H286.161V3.1H163.386Z" transform="translate(15.128)" fill="#ffc100"/>
    </g>
  </g>
  <text id="PE" transform="translate(199.783 29.224)" fill="#fff" font-size="13" font-family="ArialMT, Arial"><tspan x="0" y="0" letter-spacing="-0.072em">P</tspan><tspan y="0">E</tspan></text>
  <text id="R" transform="translate(216.68 29.224)" fill="#fff" font-size="13" font-family="ArialMT, Arial"><tspan x="0" y="0">R</tspan></text>
  <text id="TI" transform="translate(225.895 30.224)" fill="#fff" font-size="14" font-family="ArialMT, Arial"><tspan x="0" y="0" letter-spacing="-0.072em">T</tspan><tspan y="0">I</tspan></text>
  <text id="N" transform="translate(236.462 29.224)" fill="#fff" font-size="13" font-family="ArialMT, Arial"><tspan x="0" y="0">N</tspan></text>
  <text id="E" transform="translate(245.679 30.224)" fill="#fff" font-size="14" font-family="ArialMT, Arial"><tspan x="0" y="0">E</tspan></text>
  <text id="N-2" data-name="N" transform="translate(254.127 29.224)" fill="#fff" font-size="13" font-family="ArialMT, Arial"><tspan x="0" y="0">N</tspan></text>
  <text id="T" transform="translate(263.344 29.224)" fill="#fff" font-size="13" font-family="ArialMT, Arial"><tspan x="0" y="0">T</tspan></text>
  <text id="E-2" data-name="E" transform="translate(270.995 30.224)" fill="#fff" font-size="14" font-family="ArialMT, Arial"><tspan x="0" y="0">E</tspan></text>
  <g id="Grupo_8651" data-name="Grupo 8651">
    <g id="Grupo_8650" data-name="Grupo 8650" clip-path="url(#clip-path)">
      <rect id="Rectángulo_5386" data-name="Rectángulo 5386" width="125.876" height="46.382" transform="translate(176.965 264.666)" fill="#0e5ca8"/>
      <path id="Trazado_6284" data-name="Trazado 6284" d="M287.713,289.908H161.835a1.552,1.552,0,0,1-1.553-1.552V241.975a1.553,1.553,0,0,1,1.553-1.551H287.713a1.551,1.551,0,0,1,1.551,1.551v46.381a1.55,1.55,0,0,1-1.551,1.552m-124.328-3.1H286.161v-43.28H163.386Z" transform="translate(15.128 22.692)" fill="#ffc100"/>
    </g>
  </g>
  <text id="C" transform="translate(198.864 292.341)" fill="#fff" font-size="13" font-family="ArialMT, Arial"><tspan x="0" y="0">C</tspan></text>
  <text id="O" transform="translate(208.08 292.341)" fill="#fff" font-size="13" font-family="ArialMT, Arial"><tspan x="0" y="0">O</tspan></text>
  <text id="NCR" transform="translate(218.107 293.341)" fill="#fff" font-size="14" font-family="ArialMT, Arial"><tspan x="0" y="0" letter-spacing="-0.074em">NC</tspan><tspan y="0">R</tspan></text>
  <text id="ETO" transform="translate(245.756 293.341)" fill="#fff" font-size="14" font-family="ArialMT, Arial"><tspan x="0" y="0" letter-spacing="-0.072em">ET</tspan><tspan y="0">O</tspan></text>
  <text id="S" transform="translate(271.882 293.341)" fill="#fff" font-size="14" font-family="ArialMT, Arial"><tspan x="0" y="0">S</tspan></text>
  <g id="Grupo_8653" data-name="Grupo 8653">
    <g id="Grupo_8652" data-name="Grupo 8652" clip-path="url(#clip-path)">
      <rect id="Rectángulo_5388" data-name="Rectángulo 5388" width="125.877" height="46.381" transform="translate(354.746 88.072)" fill="#0e5ca8"/>
      <path id="Trazado_6285" data-name="Trazado 6285" d="M450.162,128.543H324.285a1.552,1.552,0,0,1-1.554-1.552V80.61a1.553,1.553,0,0,1,1.554-1.552H450.162a1.552,1.552,0,0,1,1.551,1.552v46.381a1.55,1.55,0,0,1-1.551,1.552m-124.326-3.1H448.612V82.162H325.836Z" transform="translate(30.461 7.462)" fill="#ffc100"/>
    </g>
  </g>
  <text id="R-2" data-name="R" transform="translate(379.527 114.559)" fill="#fff" font-size="13" font-family="ArialMT, Arial"><tspan x="0" y="0">R</tspan></text>
  <text id="EA" transform="translate(388.743 114.559)" fill="#fff" font-size="13" font-family="ArialMT, Arial"><tspan x="0" y="0" letter-spacing="-0.072em">E</tspan><tspan y="0">A</tspan></text>
  <text id="L" transform="translate(405.639 114.559)" fill="#fff" font-size="13" font-family="ArialMT, Arial"><tspan x="0" y="0">L</tspan></text>
  <text id="IZAB" transform="translate(412.494 115.559)" fill="#fff" font-size="14" font-family="ArialMT, Arial"><tspan x="0" y="0" letter-spacing="-0.072em">IZA</tspan><tspan y="0">B</tspan></text>
  <text id="L-2" data-name="L" transform="translate(439.959 114.559)" fill="#fff" font-size="13" font-family="ArialMT, Arial"><tspan x="0" y="0">L</tspan></text>
  <text id="E-3" data-name="E" transform="translate(446.814 115.559)" fill="#fff" font-size="14" font-family="ArialMT, Arial"><tspan x="0" y="0">E</tspan></text>
  <g id="Grupo_8655" data-name="Grupo 8655">
    <g id="Grupo_8654" data-name="Grupo 8654" clip-path="url(#clip-path)">
      <rect id="Rectángulo_5390" data-name="Rectángulo 5390" width="125.877" height="46.381" transform="translate(1.553 88.072)" fill="#0e5ca8"/>
      <path id="Trazado_6286" data-name="Trazado 6286" d="M127.43,128.543H1.552A1.551,1.551,0,0,1,0,126.991V80.61a1.553,1.553,0,0,1,1.552-1.552H127.43a1.551,1.551,0,0,1,1.551,1.552v46.381a1.55,1.55,0,0,1-1.551,1.552M3.1,125.441H125.879V82.162H3.1Z" transform="translate(0 7.462)" fill="#ffc100"/>
    </g>
  </g>
  <text id="ÚN" transform="translate(39.653 115.559)" fill="#fff" font-size="14" font-family="ArialMT, Arial"><tspan x="0" y="0" letter-spacing="-0.074em">Ú</tspan><tspan y="0">N</tspan></text>
  <text id="I" transform="translate(58.086 115.559)" fill="#fff" font-size="14" font-family="ArialMT, Arial"><tspan x="0" y="0">I</tspan></text>
  <text id="C-2" data-name="C" transform="translate(61.001 114.559)" fill="#fff" font-size="13" font-family="ArialMT, Arial"><tspan x="0" y="0">C</tspan></text>
  <text id="O-2" data-name="O" transform="translate(70.218 114.559)" fill="#fff" font-size="13" font-family="ArialMT, Arial"><tspan x="0" y="0">O</tspan></text>
  <text id="S-2" data-name="S" transform="translate(80.244 115.559)" fill="#fff" font-size="14" font-family="ArialMT, Arial"><tspan x="0" y="0">S</tspan></text>
  <g id="Grupo_8657" data-name="Grupo 8657">
    <g id="Grupo_8656" data-name="Grupo 8656" clip-path="url(#clip-path)">
      <rect id="Rectángulo_5392" data-name="Rectángulo 5392" width="125.877" height="46.381" transform="translate(354.746 184.767)" fill="#0e5ca8"/>
      <path id="Trazado_6287" data-name="Trazado 6287" d="M450.162,216.9H324.285a1.552,1.552,0,0,1-1.554-1.552V168.966a1.553,1.553,0,0,1,1.554-1.552H450.162a1.552,1.552,0,0,1,1.551,1.552v46.381a1.55,1.55,0,0,1-1.551,1.552m-124.326-3.1H448.612v-43.28H325.836Z" transform="translate(30.461 15.801)" fill="#ffc100"/>
    </g>
  </g>
  <text id="P" transform="translate(376.109 212.255)" fill="#fff" font-size="14" font-family="ArialMT, Arial"><tspan x="0" y="0">P</tspan></text>
  <text id="R-3" data-name="R" transform="translate(384.558 211.255)" fill="#fff" font-size="13" font-family="ArialMT, Arial"><tspan x="0" y="0">R</tspan></text>
  <text id="IO" transform="translate(393.773 212.255)" fill="#fff" font-size="14" font-family="ArialMT, Arial"><tspan x="0" y="0" letter-spacing="-0.072em">I</tspan><tspan y="0">O</tspan></text>
  <text id="R-4" data-name="R" transform="translate(406.716 211.255)" fill="#fff" font-size="13" font-family="ArialMT, Arial"><tspan x="0" y="0">R</tspan></text>
  <text id="IZAB-2" data-name="IZAB" transform="translate(415.932 212.255)" fill="#fff" font-size="14" font-family="ArialMT, Arial"><tspan x="0" y="0" letter-spacing="-0.072em">IZA</tspan><tspan y="0">B</tspan></text>
  <text id="L-3" data-name="L" transform="translate(443.396 211.255)" fill="#fff" font-size="13" font-family="ArialMT, Arial"><tspan x="0" y="0">L</tspan></text>
  <text id="E-4" data-name="E" transform="translate(450.252 212.255)" fill="#fff" font-size="14" font-family="ArialMT, Arial"><tspan x="0" y="0">E</tspan></text>
  <g id="Grupo_8659" data-name="Grupo 8659">
    <g id="Grupo_8658" data-name="Grupo 8658" clip-path="url(#clip-path)">
      <rect id="Rectángulo_5394" data-name="Rectángulo 5394" width="125.877" height="46.381" transform="translate(1.553 184.767)" fill="#0e5ca8"/>
      <path id="Trazado_6288" data-name="Trazado 6288" d="M127.43,216.9H1.552A1.551,1.551,0,0,1,0,215.347V168.966a1.553,1.553,0,0,1,1.552-1.552H127.43a1.551,1.551,0,0,1,1.551,1.552v46.381a1.55,1.55,0,0,1-1.551,1.552M3.1,213.8H125.879v-43.28H3.1Z" transform="translate(0 15.801)" fill="#ffc100"/>
    </g>
  </g>
  <text id="C-3" data-name="C" transform="translate(20.025 211.255)" fill="#fff" font-size="13" font-family="ArialMT, Arial"><tspan x="0" y="0">C</tspan></text>
  <text id="O-3" data-name="O" transform="translate(29.241 211.255)" fill="#fff" font-size="13" font-family="ArialMT, Arial"><tspan x="0" y="0">O</tspan></text>
  <text id="H" transform="translate(39.268 211.255)" fill="#fff" font-size="13" font-family="ArialMT, Arial"><tspan x="0" y="0">H</tspan></text>
  <text id="E-5" data-name="E" transform="translate(48.484 212.255)" fill="#fff" font-size="14" font-family="ArialMT, Arial"><tspan x="0" y="0">E</tspan></text>
  <text id="R-5" data-name="R" transform="translate(56.933 211.255)" fill="#fff" font-size="13" font-family="ArialMT, Arial"><tspan x="0" y="0">R</tspan></text>
  <text id="E-6" data-name="E" transform="translate(66.148 212.255)" fill="#fff" font-size="14" font-family="ArialMT, Arial"><tspan x="0" y="0">E</tspan></text>
  <text id="N-3" data-name="N" transform="translate(74.597 211.255)" fill="#fff" font-size="13" font-family="ArialMT, Arial"><tspan x="0" y="0">N</tspan></text>
  <text id="TE" transform="translate(83.813 212.255)" fill="#fff" font-size="14" font-family="ArialMT, Arial"><tspan x="0" y="0" letter-spacing="-0.072em">T</tspan><tspan y="0">E</tspan></text>
  <text id="S-3" data-name="S" transform="translate(99.913 212.255)" fill="#fff" font-size="14" font-family="ArialMT, Arial"><tspan x="0" y="0">S</tspan></text>
  <g id="Grupo_8661" data-name="Grupo 8661">
    <g id="Grupo_8660" data-name="Grupo 8660" clip-path="url(#clip-path)">
      <path id="Trazado_6289" data-name="Trazado 6289" d="M159.923,104.193s4.454,86.048,63.857,107.438V85.757Z" transform="translate(15.094 8.094)" fill="#ffc100"/>
      <path id="Trazado_6290" data-name="Trazado 6290" d="M218.272,85.758V211.632c59.4-21.39,63.862-107.438,63.862-107.438Z" transform="translate(20.602 8.094)" fill="#ffc100"/>
      <path id="Trazado_6291" data-name="Trazado 6291" d="M223.779,85.758l-63.857,18.436s4.455,86.048,63.857,107.438c59.4-21.39,63.862-107.438,63.862-107.438Z" transform="translate(15.094 8.094)" fill="#ffc100"/>
      <path id="Trazado_6292" data-name="Trazado 6292" d="M223.9,213.082a1.348,1.348,0,0,1-.451-.079C163.9,191.56,158.756,105.245,158.709,104.377a1.338,1.338,0,0,1,.961-1.35l63.857-18.438a1.41,1.41,0,0,1,.739,0l63.857,18.438a1.338,1.338,0,0,1,.962,1.35c-.044.868-5.19,87.183-64.736,108.626a1.387,1.387,0,0,1-.454.079m-62.446-107.79c.777,9.824,8.507,85.208,62.446,105.036,53.965-19.838,61.677-95.211,62.45-105.036L223.9,87.264Z" transform="translate(14.98 7.979)" fill="#003371"/>
      <path id="Trazado_6293" data-name="Trazado 6293" d="M245.8,172.043a72.491,72.491,0,0,1-21.726,18.816" transform="translate(21.149 16.238)" fill="#003372"/>
      <path id="Trazado_6294" data-name="Trazado 6294" d="M224.19,192.31a1.333,1.333,0,0,1-.648-2.5,71.372,71.372,0,0,0,21.323-18.479,1.335,1.335,0,0,1,2.095,1.655,74,74,0,0,1-22.121,19.156,1.373,1.373,0,0,1-.649.166" transform="translate(21.034 16.124)" fill="#003372"/>
      <path id="Trazado_6295" data-name="Trazado 6295" d="M257.1,151.07a114.457,114.457,0,0,1-8.892,16.443" transform="translate(23.427 14.259)" fill="#003372"/>
      <path id="Trazado_6296" data-name="Trazado 6296" d="M248.324,168.96a1.332,1.332,0,0,1-1.117-2.065,112.443,112.443,0,0,0,8.786-16.253,1.335,1.335,0,1,1,2.438,1.086,115.543,115.543,0,0,1-8.988,16.631,1.333,1.333,0,0,1-1.118.6" transform="translate(23.312 14.144)" fill="#003372"/>
    </g>
  </g>
  <text id="R-6" data-name="R" transform="translate(185.561 133.127)" fill="#003371" font-size="13" font-family="ArialMT, Arial"><tspan x="0" y="0">R</tspan></text>
  <text id="EQ" transform="translate(194.778 134.127)" fill="#003371" font-size="14" font-family="ArialMT, Arial"><tspan x="0" y="0" letter-spacing="-0.072em">E</tspan><tspan y="0">Q</tspan></text>
  <text id="U" transform="translate(213.253 133.127)" fill="#003371" font-size="13" font-family="ArialMT, Arial"><tspan x="0" y="0">U</tspan></text>
  <text id="E-7" data-name="E" transform="translate(222.468 134.127)" fill="#003371" font-size="14" font-family="ArialMT, Arial"><tspan x="0" y="0">E</tspan></text>
  <text id="R-7" data-name="R" transform="translate(230.917 133.127)" fill="#003371" font-size="13" font-family="ArialMT, Arial"><tspan x="0" y="0">R</tspan></text>
  <text id="I-2" data-name="I" transform="translate(240.133 134.127)" fill="#003371" font-size="14" font-family="ArialMT, Arial"><tspan x="0" y="0">I</tspan></text>
  <text id="M" transform="translate(243.049 134.127)" fill="#003371" font-size="14" font-family="ArialMT, Arial"><tspan x="0" y="0">M</tspan></text>
  <text id="IE" transform="translate(253.844 134.127)" fill="#003371" font-size="14" font-family="ArialMT, Arial"><tspan x="0" y="0" letter-spacing="-0.072em">I</tspan><tspan y="0">E</tspan></text>
  <text id="N-4" data-name="N" transform="translate(265.208 133.127)" fill="#003371" font-size="13" font-family="ArialMT, Arial"><tspan x="0" y="0">N</tspan></text>
  <text id="T-2" data-name="T" transform="translate(274.423 133.127)" fill="#003371" font-size="13" font-family="ArialMT, Arial"><tspan x="0" y="0">T</tspan></text>
  <text id="O-4" data-name="O" transform="translate(282.076 133.127)" fill="#003371" font-size="13" font-family="ArialMT, Arial"><tspan x="0" y="0">O</tspan></text>
  <text id="D" transform="translate(192.417 150.194)" fill="#003371" font-size="13" font-family="ArialMT, Arial"><tspan x="0" y="0">D</tspan></text>
  <text id="E_SOFTWA" data-name="E SOFTWA" transform="translate(201.633 151.194)" fill="#003371" font-size="14" font-family="ArialMT, Arial"><tspan x="0" y="0" letter-spacing="-0.072em">E SOFTW</tspan><tspan y="0">A</tspan></text>
  <text id="R-8" data-name="R" transform="translate(267.611 150.194)" fill="#003371" font-size="13" font-family="ArialMT, Arial"><tspan x="0" y="0">R</tspan></text>
  <text id="E-8" data-name="E" transform="translate(276.813 151.194)" fill="#003371" font-size="14" font-family="ArialMT, Arial"><tspan x="0" y="0">E</tspan></text>
  <g id="Grupo_8663" data-name="Grupo 8663">
    <g id="Grupo_8662" data-name="Grupo 8662" clip-path="url(#clip-path)">
      <path id="Trazado_6297" data-name="Trazado 6297" d="M131.39,107.772l-.761-6.579,6.577-.763Z" transform="translate(12.329 9.479)" fill="#ffc100"/>
      <line id="Línea_1086" data-name="Línea 1086" x1="20.875" y1="16.544" transform="translate(146.635 113.585)" fill="none" stroke="#ffc100" stroke-miterlimit="10" stroke-width="2"/>
      <path id="Trazado_6298" data-name="Trazado 6298" d="M310.985,107.772l.762-6.579-6.577-.763Z" transform="translate(28.803 9.479)" fill="#ffc100"/>
      <line id="Línea_1087" data-name="Línea 1087" y1="16.544" x2="20.875" transform="translate(315.997 113.585)" fill="none" stroke="#ffc100" stroke-miterlimit="10" stroke-width="2"/>
      <path id="Trazado_6299" data-name="Trazado 6299" d="M223.392,228.851l-4.677,4.689-4.692-4.672Z" transform="translate(20.201 21.6)" fill="#ffc100"/>
      <line id="Línea_1088" data-name="Línea 1088" x2="0.045" y2="26.635" transform="translate(238.862 223.814)" fill="none" stroke="#ffc100" stroke-miterlimit="10" stroke-width="2"/>
      <path id="Trazado_6300" data-name="Trazado 6300" d="M214.023,58.3l4.674-4.687,4.695,4.672Z" transform="translate(20.201 5.06)" fill="#ffc100"/>
      <line id="Línea_1089" data-name="Línea 1089" x1="0.044" y1="26.637" transform="translate(238.907 63.363)" fill="none" stroke="#ffc100" stroke-miterlimit="10" stroke-width="2"/>
      <path id="Trazado_6301" data-name="Trazado 6301" d="M310.985,188.008l.762,6.577-6.577.763Z" transform="translate(28.803 17.745)" fill="#ffc100"/>
      <line id="Línea_1090" data-name="Línea 1090" x2="20.875" y2="16.544" transform="translate(315.997 192.872)" fill="none" stroke="#ffc100" stroke-miterlimit="10" stroke-width="2"/>
      <path id="Trazado_6302" data-name="Trazado 6302" d="M131.39,188.008l-.761,6.577,6.577.763Z" transform="translate(12.329 17.745)" fill="#ffc100"/>
      <line id="Línea_1091" data-name="Línea 1091" x1="20.875" y2="16.544" transform="translate(146.635 192.872)" fill="none" stroke="#ffc100" stroke-miterlimit="10" stroke-width="2"/>
    </g>
  </g>
</svg>
